P1
# NISTd3.437
# 3
# Creado por el programa Pasa128aPBM.p
128 128
00000000000000000000000000000000000000000000000000000000000000000000000000000000000000000000000000000000000000000000000000000000
00000000000000000000000000000000000000000000000000000000000000000000000000000000000000000000000000000000000000000000000000000000
00000000000000000000000000000000000000000000000000000000000000000000000000000000000000000000000000000000000000000000000000000000
00000000000000000000000000000000000000000000000000000000000000000000000000000000000000000000000000000000000000000000000000000000
00000000000000000000000000000000000000000000000000000000000000000000000000000000000000000000000000000000000000000000000000000000
00000000000000000000000000000000000000000000000000000000000000000000000000000000000000000000000000000000000000000000000000000000
00000000000000000000000000000000000000000000000000000000000000000000000000000000000000000000000000000000000000000000000000000000
00000000000000000000000000000000000000000000000000000000000000000000000000000000000000000000000000000000000000000000000000000000
00000000000000000000000000000000000000000000000000000000000000000000000000000000000000000000000000000000000000000000000000000000
00000000000000000000000000000000000000000000000000000000000000000000000000000000000000000000000000000000000000000000000000000000
00000000000000000000000000000000000000000000000000000000000000000000000000000000000000000000000000000000000000000000000000000000
00000000000000000000000000000000000000000000000000000000000000000000000000000000000000000000000000000000000000000000000000000000
00000000000000000000000000000000000000000000000000000000000000000000000000000000000000000000000000000000000000000000000000000000
00000000000000000000000000000000000000000000000000000000000000000000000000000000000000000000000000000000000000000000000000000000
00000000000000000000000000000000000000000000000000000000000000000000000000000000000000000000000000000000000000000000000000000000
00000000000000000000000000000000000000000000000000000000000000000000000000000000000000000000000000000000000000000000000000000000
00000000000000000000000000000000000000000000000000000000000000000000000000000000000000000000000000000000000000000000000000000000
00000000000000000000000000000000000000000000000000000000000000000000000000000000000000000000000000000000000000000000000000000000
00000000000000000000000000000000000000000000000000000000000000000000000000000000000000000000000000000000000000000000000000000000
00000000000000000000000000000000000000000000000000000000000000000000000000000000000000000000000000000000000000000000000000000000
00000000000000000000000000000000000000000000000000000000000000000000000000000000000000000000000000000000000000000000000000000000
00000000000000000000000000000000000000000000000000000000000000000000000000000000000000000000000000000000000000000000000000000000
00000000000000000000000000000000000000000000000000000000000000000000000000000000000000000000000000000000000000000000000000000000
00000000000000000000000000000000000000000000000000000000000000000000000000000000000000000000000000000000000000000000000000000000
00000000000000000000000000000000000000000000000000000000000000000000000000000000000000000000000000000000000000000000000000000000
00000000000000000000000000000000000000000000000000000000000000000000000000000000000000000000000000000000000000000000000000000000
00000000000000000000000000000000000000000000000000000000000000000000000000000000000000000000000000000000000000000000000000000000
00000000000000000000000000000000000000000000000000000000000000000000000000000000000000000000000000000000000000000000000000000000
00000000000000000000000000000000000000000000000000000000000000000000000000000000000000000000000000000000000000000000000000000000
00000000000000000000000000000000000000000000000000000000000000000000000000000000000000000000000000000000000000000000000000000000
00000000000000000000000000000000000000000000000000000000000000000000000000000000000000000000000000000000000000000000000000000000
00000000000000000000000000000000000000000000000000000000000000000000000000000000000000000000000000000000000000000000000000000000
00000000000000000000000000000000000000000000000000000000000000000000000000000000000000000000000000000000000000000000000000000000
00000000000000000000000000000000000000000000000000000000000000000000000000000000000000000000000000000000000000000000000000000000
00000000000000000000000000000000000000000000000000000000000000000000000000000000000000000000000000000000000000000000000000000000
00000000000000000000000000000000000000000000000000000000000000000000000000000000000000000000000000000000000000000000000000000000
00000000000000000000000000000000000000000000000000000000000000000000000000000000000000000000000000000000000000000000000000000000
00000000000000000000000000000000000000000000000000000000000000000000000000000000000000000000000000000000000000000000000000000000
00000000000000000000000000000000000000000000000000000000000000000000000000000000000000000000000000000000000000000000000000000000
00000000000000000000000000000000000000000000000000000000000011111111111100000000000000000000000000000000000000000000000000000000
00000000000000000000000000000000000000000000000000000001111111111111111110000000000000000000000000000000000000000000000000000000
00000000000000000000000000000000000000000000000000000111111111111111111110000000000000000000000000000000000000000000000000000000
00000000000000000000000000000000000000000000000011111111111111111111111111100000000000000000000000000000000000000000000000000000
00000000000000000000000000000000000000000000011111111111111111111111111111100000000000000000000000000000000000000000000000000000
00000000000000000000000000000000000000000111111111111111111111111111111111110000000000000000000000000000000000000000000000000000
00000000000000000000000000000000000000001111111111111111111100000000011111110000000000000000000000000000000000000000000000000000
00000000000000000000000000000000000000011111111111111110000000000000011111110000000000000000000000000000000000000000000000000000
00000000000000000000000000000000000000011111111111110000000000000001111111110000000000000000000000000000000000000000000000000000
00000000000000000000000000000000000000011111111000000000000000000001111111100000000000000000000000000000000000000000000000000000
00000000000000000000000000000000000000001111000000000000000000000111111111100000000000000000000000000000000000000000000000000000
00000000000000000000000000000000000000000100000000000000000000011111111111100000000000000000000000000000000000000000000000000000
00000000000000000000000000000000000000000000000000000000000001111111111111000000000000000000000000000000000000000000000000000000
00000000000000000000000000000000000000000000000000000000000001111111111110000000000000000000000000000000000000000000000000000000
00000000000000000000000000000000000000000000000000000000000111111111111100000000000000000000000000000000000000000000000000000000
00000000000000000000000000000000000000000000000000000000001111111111110000000000000000000000000000000000000000000000000000000000
00000000000000000000000000000000000000000000000000000000011111111111110000000000000000000000000000000000000000000000000000000000
00000000000000000000000000000000000000000000000000000001111111111111110000000000000000000000000000000000000000000000000000000000
00000000000000000000000000000000000000000000000000001111111111111111111100000000000000000000000000000000000000000000000000000000
00000000000000000000000000000000000000000000000000111111111111111111111111110000000000000000000000000000000000000000000000000000
00000000000000000000000000000000000000000000000001111111111111111111111111111110000000000000000000000000000000000000000000000000
00000000000000000000000000000000000000000000000011111111111111111111111111111110000000000000000000000000000000000000000000000000
00000000000000000000000000000000000000000000000011111111111111111111111111111111000000000000000000000000000000000000000000000000
00000000000000000000000000000000000000000000000111111111111111111111111111111111100000000000000000000000000000000000000000000000
00000000000000000000000000000000000000000000001111111111111111011100011111111111100000000000000000000000000000000000000000000000
00000000000000000000000000000000000000000000001111111111110000000000000000111111110000000000000000000000000000000000000000000000
00000000000000000000000000000000000000000000000111111110000000000000000000001111110000000000000000000000000000000000000000000000
00000000000000000000000000000000000000000000000001110000000000000000000000001111111000000000000000000000000000000000000000000000
00000000000000000000000000000000000000000000000000000000000000000000000000000011111100000000000000000000000000000000000000000000
00000000000000000000000000000000000000000000000000000000000000000000000000000011111110000000000000000000000000000000000000000000
00000000000000000000000000000000000000000000000000000000000000000000000000000001111110000000000000000000000000000000000000000000
00000000000000000000000000000000000000000000000000000000000000000000000000000001111110000000000000000000000000000000000000000000
00000000000000000000000000000000000000000000000000000000000000000000000000000001111110000000000000000000000000000000000000000000
00000000000000000000000000000000000000000000000000000000000000000000000000000001111110000000000000000000000000000000000000000000
00000000000000000000000000000000000000000000000000000000000000000000000000000001111110000000000000000000000000000000000000000000
00000000000000000000000000000000000000000000000000000000000000000000000000000001111110000000000000000000000000000000000000000000
00000000000000000000000000000000000000000000000000000000000000000000000000000001111110000000000000000000000000000000000000000000
00000000000000000000000000000000000000000000000000000000000000000000000000000001111110000000000000000000000000000000000000000000
00000000000000000000000000000000000000000000000000000000000000000000000000000001111110000000000000000000000000000000000000000000
00000000000000000000000000000000000000000000001111111110000000000000000000000011111110000000000000000000000000000000000000000000
00000000000000000000000000000000000000000000011111111110000000000000000000000111111110000000000000000000000000000000000000000000
00000000000000000000000000000000000000000000111111111110000000000000000000001111111100000000000000000000000000000000000000000000
00000000000000000000000000000000000000000001111111111110000000000000000000111111111000000000000000000000000000000000000000000000
00000000000000000000000000000000000000000001111111111111111111010000000011111111110000000000000000000000000000000000000000000000
00000000000000000000000000000000000000000001111111111111111111111111111111111111110000000000000000000000000000000000000000000000
00000000000000000000000000000000000000000011111111111111111111111111111111111111110000000000000000000000000000000000000000000000
00000000000000000000000000000000000000000011111111111111111111111111111111111111100000000000000000000000000000000000000000000000
00000000000000000000000000000000000000000000000000000000000000000000000000000000000000000000000000000000000000000000000000000000
00000000000000000000000000000000000000000000000000000000000000000000000000000000000000000000000000000000000000000000000000000000
00000000000000000000000000000000000000000000000000000000000000000000000000000000000000000000000000000000000000000000000000000000
00000000000000000000000000000000000000000000000000000000000000000000000000000000000000000000000000000000000000000000000000000000
00000000000000000000000000000000000000000000000000000000000000000000000000000000000000000000000000000000000000000000000000000000
00000000000000000000000000000000000000000000000000000000000000000000000000000000000000000000000000000000000000000000000000000000
00000000000000000000000000000000000000000000000000000000000000000000000000000000000000000000000000000000000000000000000000000000
00000000000000000000000000000000000000000000000000000000000000000000000000000000000000000000000000000000000000000000000000000000
00000000000000000000000000000000000000000000000000000000000000000000000000000000000000000000000000000000000000000000000000000000
00000000000000000000000000000000000000000000000000000000000000000000000000000000000000000000000000000000000000000000000000000000
00000000000000000000000000000000000000000000000000000000000000000000000000000000000000000000000000000000000000000000000000000000
00000000000000000000000000000000000000000000000000000000000000000000000000000000000000000000000000000000000000000000000000000000
00000000000000000000000000000000000000000000000000000000000000000000000000000000000000000000000000000000000000000000000000000000
00000000000000000000000000000000000000000000000000000000000000000000000000000000000000000000000000000000000000000000000000000000
00000000000000000000000000000000000000000000000000000000000000000000000000000000000000000000000000000000000000000000000000000000
00000000000000000000000000000000000000000000000000000000000000000000000000000000000000000000000000000000000000000000000000000000
00000000000000000000000000000000000000000000000000000000000000000000000000000000000000000000000000000000000000000000000000000000
00000000000000000000000000000000000000000000000000000000000000000000000000000000000000000000000000000000000000000000000000000000
00000000000000000000000000000000000000000000000000000000000000000000000000000000000000000000000000000000000000000000000000000000
00000000000000000000000000000000000000000000000000000000000000000000000000000000000000000000000000000000000000000000000000000000
00000000000000000000000000000000000000000000000000000000000000000000000000000000000000000000000000000000000000000000000000000000
00000000000000000000000000000000000000000000000000000000000000000000000000000000000000000000000000000000000000000000000000000000
00000000000000000000000000000000000000000000000000000000000000000000000000000000000000000000000000000000000000000000000000000000
00000000000000000000000000000000000000000000000000000000000000000000000000000000000000000000000000000000000000000000000000000000
00000000000000000000000000000000000000000000000000000000000000000000000000000000000000000000000000000000000000000000000000000000
00000000000000000000000000000000000000000000000000000000000000000000000000000000000000000000000000000000000000000000000000000000
00000000000000000000000000000000000000000000000000000000000000000000000000000000000000000000000000000000000000000000000000000000
00000000000000000000000000000000000000000000000000000000000000000000000000000000000000000000000000000000000000000000000000000000
00000000000000000000000000000000000000000000000000000000000000000000000000000000000000000000000000000000000000000000000000000000
00000000000000000000000000000000000000000000000000000000000000000000000000000000000000000000000000000000000000000000000000000000
00000000000000000000000000000000000000000000000000000000000000000000000000000000000000000000000000000000000000000000000000000000
00000000000000000000000000000000000000000000000000000000000000000000000000000000000000000000000000000000000000000000000000000000
00000000000000000000000000000000000000000000000000000000000000000000000000000000000000000000000000000000000000000000000000000000
00000000000000000000000000000000000000000000000000000000000000000000000000000000000000000000000000000000000000000000000000000000
00000000000000000000000000000000000000000000000000000000000000000000000000000000000000000000000000000000000000000000000000000000
00000000000000000000000000000000000000000000000000000000000000000000000000000000000000000000000000000000000000000000000000000000
00000000000000000000000000000000000000000000000000000000000000000000000000000000000000000000000000000000000000000000000000000000
00000000000000000000000000000000000000000000000000000000000000000000000000000000000000000000000000000000000000000000000000000000
00000000000000000000000000000000000000000000000000000000000000000000000000000000000000000000000000000000000000000000000000000000
00000000000000000000000000000000000000000000000000000000000000000000000000000000000000000000000000000000000000000000000000000000
00000000000000000000000000000000000000000000000000000000000000000000000000000000000000000000000000000000000000000000000000000000
00000000000000000000000000000000000000000000000000000000000000000000000000000000000000000000000000000000000000000000000000000000
