P1
# NISTd3.428
# 3
# Creado por el programa Pasa128aPBM.p
128 128
00000000000000000000000000000000000000000000000000000000000000000000000000000000000000000000000000000000000000000000000000000000
00000000000000000000000000000000000000000000000000000000000000000000000000000000000000000000000000000000000000000000000000000000
00000000000000000000000000000000000000000000000000000000000000000000000000000000000000000000000000000000000000000000000000000000
00000000000000000000000000000000000000000000000000000000000000000000000000000000000000000000000000000000000000000000000000000000
00000000000000000000000000000000000000000000000000000000000000000000000000000000000000000000000000000000000000000000000000000000
00000000000000000000000000000000000000000000000000000000000000000000000000000000000000000000000000000000000000000000000000000000
00000000000000000000000000000000000000000000000000000000000000000000000000000000000000000000000000000000000000000000000000000000
00000000000000000000000000000000000000000000000000000000000000000000000000000000000000000000000000000000000000000000000000000000
00000000000000000000000000000000000000000000000000000000000000000000000000000000000000000000000000000000000000000000000000000000
00000000000000000000000000000000000000000000000000000000000000000000000000000000000000000000000000000000000000000000000000000000
00000000000000000000000000000000000000000000000000000000000000000000000000000000000000000000000000000000000000000000000000000000
00000000000000000000000000000000000000000000000000000000000000000000000000000000000000000000000000000000000000000000000000000000
00000000000000000000000000000000000000000000000000000000000000000000000000000000000000000000000000000000000000000000000000000000
00000000000000000000000000000000000000000000000000000000000000000000000000000000000000000000000000000000000000000000000000000000
00000000000000000000000000000000000000000000000000000000000000000000000000000000000000000000000000000000000000000000000000000000
00000000000000000000000000000000000000000000000000000000000000000000000000000000000000000000000000000000000000000000000000000000
00000000000000000000000000000000000000000000000000000000000000000000000000000000000000000000000000000000000000000000000000000000
00000000000000000000000000000000000000000000000000000000000000000000000000000000000000000000000000000000000000000000000000000000
00000000000000000000000000000000000000000000000000000000000000000000000000000000000000000000000000000000000000000000000000000000
00000000000000000000000000000000000000000000000000000000000000000000000000000000000000000000000000000000000000000000000000000000
00000000000000000000000000000000000000000000000000000000000000000000000000000000000000000000000000000000000000000000000000000000
00000000000000000000000000000000000000000000000000000000000000000000000000000000000000000000000000000000000000000000000000000000
00000000000000000000000000000000000000000000000000000000000000000000000000000000000000000000000000000000000000000000000000000000
00000000000000000000000000000000000000000000000000000000000000000000000000000000000000000000000000000000000000000000000000000000
00000000000000000000000000000000000000000000000000000000000000000000000000000000000000000000000000000000000000000000000000000000
00000000000000000000000000000000000000000000000000000000000000000000000000000000000000000000000000000000000000000000000000000000
00000000000000000000000000000000000000000000000000000000000000000000000000000000000000000000000000000000000000000000000000000000
00000000000000000000000000000000000000000000000000000000000000000000000000000000000000000000000000000000000000000000000000000000
00000000000000000000000000000000000000000000000000000000000000000000000000000000000000000000000000000000000000000000000000000000
00000000000000000000000000000000000000000000000000000000000000000000000000000000000000000000000000000000000000000000000000000000
00000000000000000000000000000000000000000000000000000000000000000000000000000000000000000000000000000000000000000000000000000000
00000000000000000000000000000000000000000000000000000000000000000000000000000000000000000000000000000000000000000000000000000000
00000000000000000000000000000000000000000000000000000000000000000000000000000000000000000000000000000000000000000000000000000000
00000000000000000000000000000000000000000000000000000000000000000000000000000000000000000000000000000000000000000000000000000000
00000000000000000000000000000000000000000000000000000000000000000000000000000000000000000000000000000000000000000000000000000000
00000000000000000000000000000000000000000000000000000000000000000000000000000000000000000000000000000000000000000000000000000000
00000000000000000000000000000000000000000000000000000000000000000000000000000000000000000000000000000000000000000000000000000000
00000000000000000000000000000000000000000000000000000000000000000000000000000000000000000000000000000000000000000000000000000000
00000000000000000000000000000000000000000000000000000000000000000000000000000000000000000000000000000000000000000000000000000000
00000000000000000000000000000000000000000000000000000000000000000000000011111111100000000000000000000000000000000000000000000000
00000000000000000000000000000000000000000000000000000000000000000000111111111111111000000000000000000000000000000000000000000000
00000000000000000000000000000000000000000000000000000000000000000101111111111111111100000000000000000000000000000000000000000000
00000000000000000000000000000000000000000000000000000000000000011111111111111111111100000000000000000000000000000000000000000000
00000000000000000000000000000000000000000000000000000000000000011111111111111111111100000000000000000000000000000000000000000000
00000000000000000000000000000000000000000000000000000000000000011111111111111111111100000000000000000000000000000000000000000000
00000000000000000000000000000000000000000000000000000000000000011111100001000111111100000000000000000000000000000000000000000000
00000000000000000000000000000000000000000000000000000000000000000100000000001111111100000000000000000000000000000000000000000000
00000000000000000000000000000000000000000000000000000000000000000000000000011111111100000000000000000000000000000000000000000000
00000000000000000000000000000000000000000000000000000000000000000000000000011111111000000000000000000000000000000000000000000000
00000000000000000000000000000000000000000000000000000000000000000000000000111111111000000000000000000000000000000000000000000000
00000000000000000000000000000000000000000000000000000000000000000000000001111111100000000000000000000000000000000000000000000000
00000000000000000000000000000000000000000000000000000000000000000000001111111111000000000000000000000000000000000000000000000000
00000000000000000000000000000000000000000000000000000000000000000000011111111100000000000000000000000000000000000000000000000000
00000000000000000000000000000000000000000000000000000000000000000011111111111100000000000000000000000000000000000000000000000000
00000000000000000000000000000000000000000000000000000000000000011111111111111000000000000000000000000000000000000000000000000000
00000000000000000000000000000000000000000000000000000000000111111111111111100000000000000000000000000000000000000000000000000000
00000000000000000000000000000000000000000000000000000000111111111111111111100000000000000000000000000000000000000000000000000000
00000000000000000000000000000000000000000000000000000011111111111111111111100000000000000000000000000000000000000000000000000000
00000000000000000000000000000000000000000000000000000011111111111111111111111000000000000000000000000000000000000000000000000000
00000000000000000000000000000000000000000000000000000011111111111111111111111000000000000000000000000000000000000000000000000000
00000000000000000000000000000000000000000000000000000011111111111111111111111100000000000000000000000000000000000000000000000000
00000000000000000000000000000000000000000000000000000001111111100011101111111100000000000000000000000000000000000000000000000000
00000000000000000000000000000000000000000000000000000000010000000000000111111110000000000000000000000000000000000000000000000000
00000000000000000000000000000000000000000000000000000000000000000000000011111111000000000000000000000000000000000000000000000000
00000000000000000000000000000000000000000000000000000000000000000000000011111111000000000000000000000000000000000000000000000000
00000000000000000000000000000000000000000000000000000000000000000000000011111111000000000000000000000000000000000000000000000000
00000000000000000000000000000000000000000000000000000000000000000000000011111111000000000000000000000000000000000000000000000000
00000000000000000000000000000000000000000000000000000000000000000000000011111111000000000000000000000000000000000000000000000000
00000000000000000000000000000000000000000000000000000000000000000000000111111110000000000000000000000000000000000000000000000000
00000000000000000000000000000000000000000000000000000000000000000000001111111110000000000000000000000000000000000000000000000000
00000000000000000000000000000000000000000000000000000000000000000000011111111100000000000000000000000000000000000000000000000000
00000000000000000000000000000000000000000000000000000000000000000000011111111100000000000000000000000000000000000000000000000000
00000000000000000000000000000000000000000000000000000000000000000000111111111100000000000000000000000000000000000000000000000000
00000000000000000000000000000000000000000000000010000000000000000011111111111000000000000000000000000000000000000000000000000000
00000000000000000000000000000000000000000000011111000000000000000111111111100000000000000000000000000000000000000000000000000000
00000000000000000000000000000000000000000000111111000000000000011111111111100000000000000000000000000000000000000000000000000000
00000000000000000000000000000000000000000011111110000000000011111111111111000000000000000000000000000000000000000000000000000000
00000000000000000000000000000000000000000111111100000000000111111111111110000000000000000000000000000000000000000000000000000000
00000000000000000000000000000000000000011111111000000000011111111111111100000000000000000000000000000000000000000000000000000000
00000000000000000000000000000000000000011111111000000111111111111111111000000000000000000000000000000000000000000000000000000000
00000000000000000000000000000000000000011111111111111111111111111111000000000000000000000000000000000000000000000000000000000000
00000000000000000000000000000000000000011111111111111111111111111100000000000000000000000000000000000000000000000000000000000000
00000000000000000000000000000000000000001111111111111111111111110000000000000000000000000000000000000000000000000000000000000000
00000000000000000000000000000000000000000111111111111111111111100000000000000000000000000000000000000000000000000000000000000000
00000000000000000000000000000000000000000011111111111111111100000000000000000000000000000000000000000000000000000000000000000000
00000000000000000000000000000000000000000000111111111111000000000000000000000000000000000000000000000000000000000000000000000000
00000000000000000000000000000000000000000000000111100000000000000000000000000000000000000000000000000000000000000000000000000000
00000000000000000000000000000000000000000000000000000000000000000000000000000000000000000000000000000000000000000000000000000000
00000000000000000000000000000000000000000000000000000000000000000000000000000000000000000000000000000000000000000000000000000000
00000000000000000000000000000000000000000000000000000000000000000000000000000000000000000000000000000000000000000000000000000000
00000000000000000000000000000000000000000000000000000000000000000000000000000000000000000000000000000000000000000000000000000000
00000000000000000000000000000000000000000000000000000000000000000000000000000000000000000000000000000000000000000000000000000000
00000000000000000000000000000000000000000000000000000000000000000000000000000000000000000000000000000000000000000000000000000000
00000000000000000000000000000000000000000000000000000000000000000000000000000000000000000000000000000000000000000000000000000000
00000000000000000000000000000000000000000000000000000000000000000000000000000000000000000000000000000000000000000000000000000000
00000000000000000000000000000000000000000000000000000000000000000000000000000000000000000000000000000000000000000000000000000000
00000000000000000000000000000000000000000000000000000000000000000000000000000000000000000000000000000000000000000000000000000000
00000000000000000000000000000000000000000000000000000000000000000000000000000000000000000000000000000000000000000000000000000000
00000000000000000000000000000000000000000000000000000000000000000000000000000000000000000000000000000000000000000000000000000000
00000000000000000000000000000000000000000000000000000000000000000000000000000000000000000000000000000000000000000000000000000000
00000000000000000000000000000000000000000000000000000000000000000000000000000000000000000000000000000000000000000000000000000000
00000000000000000000000000000000000000000000000000000000000000000000000000000000000000000000000000000000000000000000000000000000
00000000000000000000000000000000000000000000000000000000000000000000000000000000000000000000000000000000000000000000000000000000
00000000000000000000000000000000000000000000000000000000000000000000000000000000000000000000000000000000000000000000000000000000
00000000000000000000000000000000000000000000000000000000000000000000000000000000000000000000000000000000000000000000000000000000
00000000000000000000000000000000000000000000000000000000000000000000000000000000000000000000000000000000000000000000000000000000
00000000000000000000000000000000000000000000000000000000000000000000000000000000000000000000000000000000000000000000000000000000
00000000000000000000000000000000000000000000000000000000000000000000000000000000000000000000000000000000000000000000000000000000
00000000000000000000000000000000000000000000000000000000000000000000000000000000000000000000000000000000000000000000000000000000
00000000000000000000000000000000000000000000000000000000000000000000000000000000000000000000000000000000000000000000000000000000
00000000000000000000000000000000000000000000000000000000000000000000000000000000000000000000000000000000000000000000000000000000
00000000000000000000000000000000000000000000000000000000000000000000000000000000000000000000000000000000000000000000000000000000
00000000000000000000000000000000000000000000000000000000000000000000000000000000000000000000000000000000000000000000000000000000
00000000000000000000000000000000000000000000000000000000000000000000000000000000000000000000000000000000000000000000000000000000
00000000000000000000000000000000000000000000000000000000000000000000000000000000000000000000000000000000000000000000000000000000
00000000000000000000000000000000000000000000000000000000000000000000000000000000000000000000000000000000000000000000000000000000
00000000000000000000000000000000000000000000000000000000000000000000000000000000000000000000000000000000000000000000000000000000
00000000000000000000000000000000000000000000000000000000000000000000000000000000000000000000000000000000000000000000000000000000
00000000000000000000000000000000000000000000000000000000000000000000000000000000000000000000000000000000000000000000000000000000
00000000000000000000000000000000000000000000000000000000000000000000000000000000000000000000000000000000000000000000000000000000
00000000000000000000000000000000000000000000000000000000000000000000000000000000000000000000000000000000000000000000000000000000
00000000000000000000000000000000000000000000000000000000000000000000000000000000000000000000000000000000000000000000000000000000
00000000000000000000000000000000000000000000000000000000000000000000000000000000000000000000000000000000000000000000000000000000
00000000000000000000000000000000000000000000000000000000000000000000000000000000000000000000000000000000000000000000000000000000
00000000000000000000000000000000000000000000000000000000000000000000000000000000000000000000000000000000000000000000000000000000
00000000000000000000000000000000000000000000000000000000000000000000000000000000000000000000000000000000000000000000000000000000
00000000000000000000000000000000000000000000000000000000000000000000000000000000000000000000000000000000000000000000000000000000
00000000000000000000000000000000000000000000000000000000000000000000000000000000000000000000000000000000000000000000000000000000
