P1
# NISTd3.1063
# 3
# Creado por el programa Pasa128aPBM.p
128 128
00000000000000000000000000000000000000000000000000000000000000000000000000000000000000000000000000000000000000000000000000000000
00000000000000000000000000000000000000000000000000000000000000000000000000000000000000000000000000000000000000000000000000000000
00000000000000000000000000000000000000000000000000000000000000000000000000000000000000000000000000000000000000000000000000000000
00000000000000000000000000000000000000000000000000000000000000000000000000000000000000000000000000000000000000000000000000000000
00000000000000000000000000000000000000000000000000000000000000000000000000000000000000000000000000000000000000000000000000000000
00000000000000000000000000000000000000000000000000000000000000000000000000000000000000000000000000000000000000000000000000000000
00000000000000000000000000000000000000000000000000000000000000000000000000000000000000000000000000000000000000000000000000000000
00000000000000000000000000000000000000000000000000000000000000000000000000000000000000000000000000000000000000000000000000000000
00000000000000000000000000000000000000000000000000000000000000000000000000000000000000000000000000000000000000000000000000000000
00000000000000000000000000000000000000000000000000000000000000000000000000000000000000000000000000000000000000000000000000000000
00000000000000000000000000000000000000000000000000000000000000000000000000000000000000000000000000000000000000000000000000000000
00000000000000000000000000000000000000000000000000000000000000000000000000000000000000000000000000000000000000000000000000000000
00000000000000000000000000000000000000000000000000000000000000000000000000000000000000000000000000000000000000000000000000000000
00000000000000000000000000000000000000000000000000000000000000000000000000000000000000000000000000000000000000000000000000000000
00000000000000000000000000000000000000000000000000000000000000000000000000000000000000000000000000000000000000000000000000000000
00000000000000000000000000000000000000000000000000000000000000000000000000000000000000000000000000000000000000000000000000000000
00000000000000000000000000000000000000000000000000000000000000000000000000000000000000000000000000000000000000000000000000000000
00000000000000000000000000000000000000000000000000000000000000000000000000000000000000000000000000000000000000000000000000000000
00000000000000000000000000000000000000000000000000000000000000000000000000000000000000000000000000000000000000000000000000000000
00000000000000000000000000000000000000000000000000000000000000000000000000000000000000000000000000000000000000000000000000000000
00000000000000000000000000000000000000000000000000000000000000000000000000000000000000000000000000000000000000000000000000000000
00000000000000000000000000000000000000000000000000000000000000000000000000000000000000000000000000000000000000000000000000000000
00000000000000000000000000000000000000000000000000000000000000000000000000000000000000000000000000000000000000000000000000000000
00000000000000000000000000000000000000000000000000000000000000000000000000000000000000000000000000000000000000000000000000000000
00000000000000000000000000000000000000000000000000000000000000000000000000000000000000000000000000000000000000000000000000000000
00000000000000000000000000000000000000000000000000000000000000000000000000000000000000000000000000000000000000000000000000000000
00000000000000000000000000000000000000000000000000000000000000000000000000000000000000000000000000000000000000000000000000000000
00000000000000000000000000000000000000000000000000000000000000000000000000000000000000000000000000000000000000000000000000000000
00000000000000000000000000000000000000000000000000000000000000000000000000000000000000000000000000000000000000000000000000000000
00000000000000000000000000000000000000000000000000000000000000000000000000000000000000000000000000000000000000000000000000000000
00000000000000000000000000000000000000000000000000000000000000000000000000000000000000000000000000000000000000000000000000000000
00000000000000000000000000000000000000000000000000000000000000000000000000000000000000000000000000000000000000000000000000000000
00000000000000000000000000000000000000000000000000000000000000000000000000000000000000000000000000000000000000000000000000000000
00000000000000000000000000000000000000000000000000000000000000000000000000000000000000000000000000000000000000000000000000000000
00000000000000000000000000000000000000000000000000000000000000000000000000000000000000000000000000000000000000000000000000000000
00000000000000000000000000000000000000000000000000000000000000000000000000000000000000000000000000000000000000000000000000000000
00000000000000000000000000000000000000000000000000000000000000000000000000000000000000000000000000000000000000000000000000000000
00000000000000000000000000000000000000000000000000000000000000000000000000000000000000000000000000000000000000000000000000000000
00000000000000000000000000000000000000000000000000000000000000011111000000000000000000000000000000000000000000000000000000000000
00000000000000000000000000000000000000000000000000000000111111111111111000000000000000000000000000000000000000000000000000000000
00000000000000000000000000000000000000000000000000011111111111111111111111000000000000000000000000000000000000000000000000000000
00000000000000000000000000000000000000000000000011111111111111111111111111100000000000000000000000000000000000000000000000000000
00000000000000000000000000000000000000000000000011111111111111111111111111110000000000000000000000000000000000000000000000000000
00000000000000000000000000000000000000000000000011111111111111111111111111110000000000000000000000000000000000000000000000000000
00000000000000000000000000000000000000000000000011111111111111111111111111110000000000000000000000000000000000000000000000000000
00000000000000000000000000000000000000000000000011111111111111100000111111110000000000000000000000000000000000000000000000000000
00000000000000000000000000000000000000000000000011111111111000000000111111100000000000000000000000000000000000000000000000000000
00000000000000000000000000000000000000000000000011111111100000000001111111100000000000000000000000000000000000000000000000000000
00000000000000000000000000000000000000000000000011111000000000000011111111100000000000000000000000000000000000000000000000000000
00000000000000000000000000000000000000000000000000000000000000000111111111100000000000000000000000000000000000000000000000000000
00000000000000000000000000000000000000000000000000000000000000011111111110000000000000000000000000000000000000000000000000000000
00000000000000000000000000000000000000000000000000000000000000011111111100000000000000000000000000000000000000000000000000000000
00000000000000000000000000000000000000000000000000000000000000111111111100000000000000000000000000000000000000000000000000000000
00000000000000000000000000000000000000000000000000000000000011111111111000000000000000000000000000000000000000000000000000000000
00000000000000000000000000000000000000000000000000000000011111111111100000000000000000000000000000000000000000000000000000000000
00000000000000000000000000000000000000000000000000000000111111111111100000000000000000000000000000000000000000000000000000000000
00000000000000000000000000000000000000000000000000000011111111111111000000000000000000000000000000000000000000000000000000000000
00000000000000000000000000000000000000000000000000000111111111111100000000000000000000000000000000000000000000000000000000000000
00000000000000000000000000000000000000000000000000011111111111111110000000000000000000000000000000000000000000000000000000000000
00000000000000000000000000000000000000000000000000011111111111111111111100000000000000000000000000000000000000000000000000000000
00000000000000000000000000000000000000000000000011111111111111111111111110000000000000000000000000000000000000000000000000000000
00000000000000000000000000000000000000000000000011111111111111111111111111100000000000000000000000000000000000000000000000000000
00000000000000000000000000000000000000000000000011111111111111111111111111100000000000000000000000000000000000000000000000000000
00000000000000000000000000000000000000000000000011111111111111111111111111110000000000000000000000000000000000000000000000000000
00000000000000000000000000000000000000000000000011111111111100000000011111111000000000000000000000000000000000000000000000000000
00000000000000000000000000000000000000000000000011111110000000000000000111111000000000000000000000000000000000000000000000000000
00000000000000000000000000000000000000000000000000000000000000000000000111111000000000000000000000000000000000000000000000000000
00000000000000000000000000000000000000000000000000000000000000000000000111111000000000000000000000000000000000000000000000000000
00000000000000000000000000000000000000000000000000000000000000000000001111111000000000000000000000000000000000000000000000000000
00000000000000000000000000000000000000000000000000000000000000000000001111111000000000000000000000000000000000000000000000000000
00000000000000000000000000000000000000000000000000000000000000000000011111111000000000000000000000000000000000000000000000000000
00000000000000000000000000000000000000000000000000000000000000000000011111111000000000000000000000000000000000000000000000000000
00000000000000000000000000000000000000000000000000000000000000000000111111110000000000000000000000000000000000000000000000000000
00000000000000000000000000000000000000000000000000000000000000000011111111100000000000000000000000000000000000000000000000000000
00000000000000000000000000000000000000000000000000000000000000000011111111100000000000000000000000000000000000000000000000000000
00000000000000000000000000000000000000000000000000000000000000000111111111100000000000000000000000000000000000000000000000000000
00000000000000000000000000000000000000000000000000000000000000011111111111000000000000000000000000000000000000000000000000000000
00000000000000000000000000000000000000000000000000000000000000011111111100000000000000000000000000000000000000000000000000000000
00000000000000000000000000000000000000000000000000000000000001111111111100000000000000000000000000000000000000000000000000000000
00000000000000000000000000000000000000000000000000000000000011111111111000000000000000000000000000000000000000000000000000000000
00000000000000000000000000000000000000000000000000000000000111111111100000000000000000000000000000000000000000000000000000000000
00000000000000000000000000000000000000000000000000000000011111111111000000000000000000000000000000000000000000000000000000000000
00000000000000000000000000000000000000000000000000000000111111111110000000000000000000000000000000000000000000000000000000000000
00000000000000000000000000000000000000000000000000000011111111111100000000000000000000000000000000000000000000000000000000000000
00000000000000000000000000000000000000000000000000000111111111110000000000000000000000000000000000000000000000000000000000000000
00000000000000000000000000000000000000000000000000011111111111100000000000000000000000000000000000000000000000000000000000000000
00000000000000000000000000000000000000000000000000111111111111100000000000000000000000000000000000000000000000000000000000000000
00000000000000000000000000000000000000000000000000000000000000000000000000000000000000000000000000000000000000000000000000000000
00000000000000000000000000000000000000000000000000000000000000000000000000000000000000000000000000000000000000000000000000000000
00000000000000000000000000000000000000000000000000000000000000000000000000000000000000000000000000000000000000000000000000000000
00000000000000000000000000000000000000000000000000000000000000000000000000000000000000000000000000000000000000000000000000000000
00000000000000000000000000000000000000000000000000000000000000000000000000000000000000000000000000000000000000000000000000000000
00000000000000000000000000000000000000000000000000000000000000000000000000000000000000000000000000000000000000000000000000000000
00000000000000000000000000000000000000000000000000000000000000000000000000000000000000000000000000000000000000000000000000000000
00000000000000000000000000000000000000000000000000000000000000000000000000000000000000000000000000000000000000000000000000000000
00000000000000000000000000000000000000000000000000000000000000000000000000000000000000000000000000000000000000000000000000000000
00000000000000000000000000000000000000000000000000000000000000000000000000000000000000000000000000000000000000000000000000000000
00000000000000000000000000000000000000000000000000000000000000000000000000000000000000000000000000000000000000000000000000000000
00000000000000000000000000000000000000000000000000000000000000000000000000000000000000000000000000000000000000000000000000000000
00000000000000000000000000000000000000000000000000000000000000000000000000000000000000000000000000000000000000000000000000000000
00000000000000000000000000000000000000000000000000000000000000000000000000000000000000000000000000000000000000000000000000000000
00000000000000000000000000000000000000000000000000000000000000000000000000000000000000000000000000000000000000000000000000000000
00000000000000000000000000000000000000000000000000000000000000000000000000000000000000000000000000000000000000000000000000000000
00000000000000000000000000000000000000000000000000000000000000000000000000000000000000000000000000000000000000000000000000000000
00000000000000000000000000000000000000000000000000000000000000000000000000000000000000000000000000000000000000000000000000000000
00000000000000000000000000000000000000000000000000000000000000000000000000000000000000000000000000000000000000000000000000000000
00000000000000000000000000000000000000000000000000000000000000000000000000000000000000000000000000000000000000000000000000000000
00000000000000000000000000000000000000000000000000000000000000000000000000000000000000000000000000000000000000000000000000000000
00000000000000000000000000000000000000000000000000000000000000000000000000000000000000000000000000000000000000000000000000000000
00000000000000000000000000000000000000000000000000000000000000000000000000000000000000000000000000000000000000000000000000000000
00000000000000000000000000000000000000000000000000000000000000000000000000000000000000000000000000000000000000000000000000000000
00000000000000000000000000000000000000000000000000000000000000000000000000000000000000000000000000000000000000000000000000000000
00000000000000000000000000000000000000000000000000000000000000000000000000000000000000000000000000000000000000000000000000000000
00000000000000000000000000000000000000000000000000000000000000000000000000000000000000000000000000000000000000000000000000000000
00000000000000000000000000000000000000000000000000000000000000000000000000000000000000000000000000000000000000000000000000000000
00000000000000000000000000000000000000000000000000000000000000000000000000000000000000000000000000000000000000000000000000000000
00000000000000000000000000000000000000000000000000000000000000000000000000000000000000000000000000000000000000000000000000000000
00000000000000000000000000000000000000000000000000000000000000000000000000000000000000000000000000000000000000000000000000000000
00000000000000000000000000000000000000000000000000000000000000000000000000000000000000000000000000000000000000000000000000000000
00000000000000000000000000000000000000000000000000000000000000000000000000000000000000000000000000000000000000000000000000000000
00000000000000000000000000000000000000000000000000000000000000000000000000000000000000000000000000000000000000000000000000000000
00000000000000000000000000000000000000000000000000000000000000000000000000000000000000000000000000000000000000000000000000000000
00000000000000000000000000000000000000000000000000000000000000000000000000000000000000000000000000000000000000000000000000000000
00000000000000000000000000000000000000000000000000000000000000000000000000000000000000000000000000000000000000000000000000000000
00000000000000000000000000000000000000000000000000000000000000000000000000000000000000000000000000000000000000000000000000000000
00000000000000000000000000000000000000000000000000000000000000000000000000000000000000000000000000000000000000000000000000000000
00000000000000000000000000000000000000000000000000000000000000000000000000000000000000000000000000000000000000000000000000000000
00000000000000000000000000000000000000000000000000000000000000000000000000000000000000000000000000000000000000000000000000000000
