P1
# NISTd3.454
# 3
# Creado por el programa Pasa128aPBM.p
128 128
00000000000000000000000000000000000000000000000000000000000000000000000000000000000000000000000000000000000000000000000000000000
00000000000000000000000000000000000000000000000000000000000000000000000000000000000000000000000000000000000000000000000000000000
00000000000000000000000000000000000000000000000000000000000000000000000000000000000000000000000000000000000000000000000000000000
00000000000000000000000000000000000000000000000000000000000000000000000000000000000000000000000000000000000000000000000000000000
00000000000000000000000000000000000000000000000000000000000000000000000000000000000000000000000000000000000000000000000000000000
00000000000000000000000000000000000000000000000000000000000000000000000000000000000000000000000000000000000000000000000000000000
00000000000000000000000000000000000000000000000000000000000000000000000000000000000000000000000000000000000000000000000000000000
00000000000000000000000000000000000000000000000000000000000000000000000000000000000000000000000000000000000000000000000000000000
00000000000000000000000000000000000000000000000000000000000000000000000000000000000000000000000000000000000000000000000000000000
00000000000000000000000000000000000000000000000000000000000000000000000000000000000000000000000000000000000000000000000000000000
00000000000000000000000000000000000000000000000000000000000000000000000000000000000000000000000000000000000000000000000000000000
00000000000000000000000000000000000000000000000000000000000000000000000000000000000000000000000000000000000000000000000000000000
00000000000000000000000000000000000000000000000000000000000000000000000000000000000000000000000000000000000000000000000000000000
00000000000000000000000000000000000000000000000000000000000000000000000000000000000000000000000000000000000000000000000000000000
00000000000000000000000000000000000000000000000000000000000000000000000000000000000000000000000000000000000000000000000000000000
00000000000000000000000000000000000000000000000000000000000000000000000000000000000000000000000000000000000000000000000000000000
00000000000000000000000000000000000000000000000000000000000000000000000000000000000000000000000000000000000000000000000000000000
00000000000000000000000000000000000000000000000000000000000000000000000000000000000000000000000000000000000000000000000000000000
00000000000000000000000000000000000000000000000000000000000000000000000000000000000000000000000000000000000000000000000000000000
00000000000000000000000000000000000000000000000000000000000000000000000000000000000000000000000000000000000000000000000000000000
00000000000000000000000000000000000000000000000000000000000000000000000000000000000000000000000000000000000000000000000000000000
00000000000000000000000000000000000000000000000000000000000000000000000000000000000000000000000000000000000000000000000000000000
00000000000000000000000000000000000000000000000000000000000000000000000000000000000000000000000000000000000000000000000000000000
00000000000000000000000000000000000000000000000000000000000000000000000000000000000000000000000000000000000000000000000000000000
00000000000000000000000000000000000000000000000000000000000000000000000000000000000000000000000000000000000000000000000000000000
00000000000000000000000000000000000000000000000000000000000000000000000000000000000000000000000000000000000000000000000000000000
00000000000000000000000000000000000000000000000000000000000000000000000000000000000000000000000000000000000000000000000000000000
00000000000000000000000000000000000000000000000000000000000000000000000000000000000000000000000000000000000000000000000000000000
00000000000000000000000000000000000000000000000000000000000000000000000000000000000000000000000000000000000000000000000000000000
00000000000000000000000000000000000000000000000000000000000000000000000000000000000000000000000000000000000000000000000000000000
00000000000000000000000000000000000000000000000000000000000000000000000000000000000000000000000000000000000000000000000000000000
00000000000000000000000000000000000000000000000000000000000000000000000000000000000000000000000000000000000000000000000000000000
00000000000000000000000000000000000000000000000000000000000000000000000000000000000000000000000000000000000000000000000000000000
00000000000000000000000000000000000000000000000000000000000000000000000000000000000000000000000000000000000000000000000000000000
00000000000000000000000000000000000000000000000000000000000000000000000000000000000000000000000000000000000000000000000000000000
00000000000000000000000000000000000000000000000000000000000000000000000000000000000000000000000000000000000000000000000000000000
00000000000000000000000000000000000000000000000000000000000000000000000000000000000000000000000000000000000000000000000000000000
00000000000000000000000000000000000000000000000000000000000000000010010011111111100000000000000000000000000000000000000000000000
00000000000000000000000000000000000000000000000000000000000000001111111111111111111000000000000000000000000000000000000000000000
00000000000000000000000000000000000000000000000000000000000001111111111111111111111100000000000000000000000000000000000000000000
00000000000000000000000000000000000000000000000000000000101111111111111111111111111100000000000000000000000000000000000000000000
00000000000000000000000000000000000000000000000000001111111111111111111111111111111100000000000000000000000000000000000000000000
00000000000000000000000000000000000000000000000000011111111111111111111111111111111111000000000000000000000000000000000000000000
00000000000000000000000000000000000000000000000011111111111111111111111111111111111110000000000000000000000000000000000000000000
00000000000000000000000000000000000000000000000011111111111111111111111111111111111110000000000000000000000000000000000000000000
00000000000000000000000000000000000000000000000001111111111111111111111111101111111111000000000000000000000000000000000000000000
00000000000000000000000000000000000000000000000111111111111111010000000000011111111110000000000000000000000000000000000000000000
00000000000000000000000000000000000000000000000111111111111000000000000000011111111110000000000000000000000000000000000000000000
00000000000000000000000000000000000000000000000011111111000000000000000000011111111110000000000000000000000000000000000000000000
00000000000000000000000000000000000000000000000011111110000000000000000001111111111110000000000000000000000000000000000000000000
00000000000000000000000000000000000000000000000011100000000000000000000111111111111000000000000000000000000000000000000000000000
00000000000000000000000000000000000000000000000000000000000000000000001111111111111000000000000000000000000000000000000000000000
00000000000000000000000000000000000000000000000000000000000000000000011111111111110000000000000000000000000000000000000000000000
00000000000000000000000000000000000000000000000000000000000000000011111111111111000000000000000000000000000000000000000000000000
00000000000000000000000000000000000000000000000000000000000000001111111111111110000000000000000000000000000000000000000000000000
00000000000000000000000000000000000000000000000000000000000001111111111111111110000000000000000000000000000000000000000000000000
00000000000000000000000000000000000000000000000000000000000111111111111111111000000000000000000000000000000000000000000000000000
00000000000000000000000000000000000000000000000000000001111111111111111111111000000000000000000000000000000000000000000000000000
00000000000000000000000000000000000000000000000000000011111111111111111111111110000000000000000000000000000000000000000000000000
00000000000000000000000000000000000000000000000000111111111111111111111111111100000000000000000000000000000000000000000000000000
00000000000000000000000000000000000000000000000011111111111111111111111111111111000000000000000000000000000000000000000000000000
00000000000000000000000000000000000000000000000011111111111111111111111111111111110000000000000000000000000000000000000000000000
00000000000000000000000000000000000000000000000111111111111111111111111111111111100000000000000000000000000000000000000000000000
00000000000000000000000000000000000000000000001111111111111111111111111111111111100000000000000000000000000000000000000000000000
00000000000000000000000000000000000000000000000111111111111111111100000111111111110000000000000000000000000000000000000000000000
00000000000000000000000000000000000000000000000111111111111111000000000001111111111000000000000000000000000000000000000000000000
00000000000000000000000000000000000000000000000111111111110000000000000000111111110000000000000000000000000000000000000000000000
00000000000000000000000000000000000000000000000001111110000000000000000000011111111000000000000000000000000000000000000000000000
00000000000000000000000000000000000000000000000000000000000000000000000000011111111000000000000000000000000000000000000000000000
00000000000000000000000000000000000000000000000000000000000000000000000000111111111000000000000000000000000000000000000000000000
00000000000000000000000000000000000000000000000000000000000000000000000000011111111000000000000000000000000000000000000000000000
00000000000000000000000000000000000000000000000000000000000000000000000000011111111000000000000000000000000000000000000000000000
00000000000000000000000000000000000000000000000000000000000000000000000000011111110000000000000000000000000000000000000000000000
00000000000000000000000000000000000000000000000000000000000000000000000000111111100000000000000000000000000000000000000000000000
00000000000000000000000000000000000000000000000000000000000000000000000001111111110000000000000000000000000000000000000000000000
00000000000000000000000000000000000000000000000000000000000000000000000111111111100000000000000000000000000000000000000000000000
00000000000000000000000000000000000000000000000000000000000000000000001111111111000000000000000000000000000000000000000000000000
00000000000000000000000000000000000000000000001111000000000000000000001111111111000000000000000000000000000000000000000000000000
00000000000000000000000000000000000001111111111100000000000000000000111111111100000000000000000000000000000000000000000000000000
00000000000000000000000000000000001111111111111100000000000000000111111111111100000000000000000000000000000000000000000000000000
00000000000000000000000000000000001111111111111100000000000000001111111111111000000000000000000000000000000000000000000000000000
00000000000000000000000000000000001111111111111000000000000001111111111111110000000000000000000000000000000000000000000000000000
00000000000000000000000000000000011111111111111111111011111111111111111111000000000000000000000000000000000000000000000000000000
00000000000000000000000000000000011111111111111111111111111111111111111110000000000000000000000000000000000000000000000000000000
00000000000000000000000000000000011111111111111111111111111111111111111100000000000000000000000000000000000000000000000000000000
00000000000000000000000000000000111111111111111111111111111111111111100000000000000000000000000000000000000000000000000000000000
00000000000000000000000000000000011111111111111111111111111111111111000000000000000000000000000000000000000000000000000000000000
00000000000000000000000000000000001111111111111111111111111111100000000000000000000000000000000000000000000000000000000000000000
00000000000000000000000000000000001100111111111111111111100000000000000000000000000000000000000000000000000000000000000000000000
00000000000000000000000000000000000000000000000000000000000000000000000000000000000000000000000000000000000000000000000000000000
00000000000000000000000000000000000000000000000000000000000000000000000000000000000000000000000000000000000000000000000000000000
00000000000000000000000000000000000000000000000000000000000000000000000000000000000000000000000000000000000000000000000000000000
00000000000000000000000000000000000000000000000000000000000000000000000000000000000000000000000000000000000000000000000000000000
00000000000000000000000000000000000000000000000000000000000000000000000000000000000000000000000000000000000000000000000000000000
00000000000000000000000000000000000000000000000000000000000000000000000000000000000000000000000000000000000000000000000000000000
00000000000000000000000000000000000000000000000000000000000000000000000000000000000000000000000000000000000000000000000000000000
00000000000000000000000000000000000000000000000000000000000000000000000000000000000000000000000000000000000000000000000000000000
00000000000000000000000000000000000000000000000000000000000000000000000000000000000000000000000000000000000000000000000000000000
00000000000000000000000000000000000000000000000000000000000000000000000000000000000000000000000000000000000000000000000000000000
00000000000000000000000000000000000000000000000000000000000000000000000000000000000000000000000000000000000000000000000000000000
00000000000000000000000000000000000000000000000000000000000000000000000000000000000000000000000000000000000000000000000000000000
00000000000000000000000000000000000000000000000000000000000000000000000000000000000000000000000000000000000000000000000000000000
00000000000000000000000000000000000000000000000000000000000000000000000000000000000000000000000000000000000000000000000000000000
00000000000000000000000000000000000000000000000000000000000000000000000000000000000000000000000000000000000000000000000000000000
00000000000000000000000000000000000000000000000000000000000000000000000000000000000000000000000000000000000000000000000000000000
00000000000000000000000000000000000000000000000000000000000000000000000000000000000000000000000000000000000000000000000000000000
00000000000000000000000000000000000000000000000000000000000000000000000000000000000000000000000000000000000000000000000000000000
00000000000000000000000000000000000000000000000000000000000000000000000000000000000000000000000000000000000000000000000000000000
00000000000000000000000000000000000000000000000000000000000000000000000000000000000000000000000000000000000000000000000000000000
00000000000000000000000000000000000000000000000000000000000000000000000000000000000000000000000000000000000000000000000000000000
00000000000000000000000000000000000000000000000000000000000000000000000000000000000000000000000000000000000000000000000000000000
00000000000000000000000000000000000000000000000000000000000000000000000000000000000000000000000000000000000000000000000000000000
00000000000000000000000000000000000000000000000000000000000000000000000000000000000000000000000000000000000000000000000000000000
00000000000000000000000000000000000000000000000000000000000000000000000000000000000000000000000000000000000000000000000000000000
00000000000000000000000000000000000000000000000000000000000000000000000000000000000000000000000000000000000000000000000000000000
00000000000000000000000000000000000000000000000000000000000000000000000000000000000000000000000000000000000000000000000000000000
00000000000000000000000000000000000000000000000000000000000000000000000000000000000000000000000000000000000000000000000000000000
00000000000000000000000000000000000000000000000000000000000000000000000000000000000000000000000000000000000000000000000000000000
00000000000000000000000000000000000000000000000000000000000000000000000000000000000000000000000000000000000000000000000000000000
00000000000000000000000000000000000000000000000000000000000000000000000000000000000000000000000000000000000000000000000000000000
00000000000000000000000000000000000000000000000000000000000000000000000000000000000000000000000000000000000000000000000000000000
00000000000000000000000000000000000000000000000000000000000000000000000000000000000000000000000000000000000000000000000000000000
00000000000000000000000000000000000000000000000000000000000000000000000000000000000000000000000000000000000000000000000000000000
00000000000000000000000000000000000000000000000000000000000000000000000000000000000000000000000000000000000000000000000000000000
00000000000000000000000000000000000000000000000000000000000000000000000000000000000000000000000000000000000000000000000000000000
00000000000000000000000000000000000000000000000000000000000000000000000000000000000000000000000000000000000000000000000000000000
00000000000000000000000000000000000000000000000000000000000000000000000000000000000000000000000000000000000000000000000000000000
00000000000000000000000000000000000000000000000000000000000000000000000000000000000000000000000000000000000000000000000000000000
