P1
# NISTd7.2453
# 7
# Creado por el programa Pasa128aPBM.p
128 128
00000000000000000000000000000000000000000000000000000000000000000000000000000000000000000000000000000000000000000000000000000000
00000000000000000000000000000000000000000000000000000000000000000000000000000000000000000000000000000000000000000000000000000000
00000000000000000000000000000000000000000000000000000000000000000000000000000000000000000000000000000000000000000000000000000000
00000000000000000000000000000000000000000000000000000000000000000000000000000000000000000000000000000000000000000000000000000000
00000000000000000000000000000000000000000000000000000000000000000000000000000000000000000000000000000000000000000000000000000000
00000000000000000000000000000000000000000000000000000000000000000000000000000000000000000000000000000000000000000000000000000000
00000000000000000000000000000000000000000000000000000000000000000000000000000000000000000000000000000000000000000000000000000000
00000000000000000000000000000000000000000000000000000000000000000000000000000000000000000000000000000000000000000000000000000000
00000000000000000000000000000000000000000000000000000000000000000000000000000000000000000000000000000000000000000000000000000000
00000000000000000000000000000000000000000000000000000000000000000000000000000000000000000000000000000000000000000000000000000000
00000000000000000000000000000000000000000000000000000000000000000000000000000000000000000000000000000000000000000000000000000000
00000000000000000000000000000000000000000000000000000000000000000000000000000000000000000000000000000000000000000000000000000000
00000000000000000000000000000000000000000000000000000000000000000000000000000000000000000000000000000000000000000000000000000000
00000000000000000000000000000000000000000000000000000000000000000000000000000000000000000000000000000000000000000000000000000000
00000000000000000000000000000000000000000000000000000000000000000000000000000000000000000000000000000000000000000000000000000000
00000000000000000000000000000000000000000000000000000000000000000000000000000000000000000000000000000000000000000000000000000000
00000000000000000000000000000000000000000000000000000000000000000000000000000000000000000000000000000000000000000000000000000000
00000000000000000000000000000000000000000000000000000000000000000000000000000000000000000000000000000000000000000000000000000000
00000000000000000000000000000000000000000000000000000000000000000000000000000000000000000000000000000000000000000000000000000000
00000000000000000000000000000000000000000000000000000000000000000000000000000000000000000000000000000000000000000000000000000000
00000000000000000000000000000000000000000000000000000000000000000000000000000000000000000000000000000000000000000000000000000000
00000000000000000000000000000000000000000000000000000000000000000000000000000000000000000000000000000000000000000000000000000000
00000000000000000000000000000000000000000000000000000000000000000000000000000000000000000000000000000000000000000000000000000000
00000000000000000000000000000000000000000000000000000000000000000000000000000000000000000000000000000000000000000000000000000000
00000000000000000000000000000000000000000000000000000000000000000000000000000000000000000000000000000000000000000000000000000000
00000000000000000000000000000000000000000000000000000000000000000000000000000000000000000000000000000000000000000000000000000000
00000000000000000000000000000000000000000000000000000000000000000000000000000000000000000000000000000000000000000000000000000000
00000000000000000000000000000000000000000000000000000000000000000000000000000000000000000000000000000000000000000000000000000000
00000000000000000000000000000000000000000000000000000000000000000000000000000000000000000000000000000000000000000000000000000000
00000000000000000000000000000000000000000000000000000000000000000000000000000000000000000000000000000000000000000000000000000000
00000000000000000000000000000000000000000000000000000000000000000000000000000000000000000000000000000000000000000000000000000000
00000000000000000000000000000000000000000000000000000000000000000000000000000000000000000000000000000000000000000000000000000000
00000000000000000000000000000000000000000000000000000000000000000000000000000000000000000000000000000000000000000000000000000000
00000000000000000000000000000000000000000000000000000000000000000000000000000000000000000000000000000000000000000000000000000000
00000000000000000000000000000000000000000000000000000000000000000000000000000000000000000000000000000000000000000000000000000000
00000000000000000000000000000000000000000000000111111111110000100000000000000000000000000000000000000000000000000000000000000000
00000000000000000000000000000000000000000000011111111111111111111111111111111111000000000000000000000000000000000000000000000000
00000000000000000000000000000000000000000000111111111111111111111111111111111111100000000000000000000000000000000000000000000000
00000000000000000000000000000000000000000000111111111111111111111111111111111111110000000000000000000000000000000000000000000000
00000000000000000000000000000000000000000000111111111111111111111111111111111111110000000000000000000000000000000000000000000000
00000000000000000000000000000000000000000000111111111111111111111111111111111111110000000000000000000000000000000000000000000000
00000000000000000000000000000000000000000000111111111111111111111111111111111111100000000000000000000000000000000000000000000000
00000000000000000000000000000000000000000000111111111110000000001111111111111111100000000000000000000000000000000000000000000000
00000000000000000000000000000000000000000001111111111100000000000000111101111111100000000000000000000000000000000000000000000000
00000000000000000000000000000000000000000001111111111100000000000000000000111111100000000000000000000000000000000000000000000000
00000000000000000000000000000000000000000001111111111100000000000000000000111111100000000000000000000000000000000000000000000000
00000000000000000000000000000000000000000001111111111100000000000000000001111111100000000000000000000000000000000000000000000000
00000000000000000000000000000000000000000001111111111100000000000000000001111111100000000000000000000000000000000000000000000000
00000000000000000000000000000000000000000000111111111110000000000000000001111111100000000000000000000000000000000000000000000000
00000000000000000000000000000000000000000000111111111110000000000000000001111111100000000000000000000000000000000000000000000000
00000000000000000000000000000000000000000000111111111110000000000000000001111111100000000000000000000000000000000000000000000000
00000000000000000000000000000000000000000000011111111110000000000000000001111111100000000000000000000000000000000000000000000000
00000000000000000000000000000000000000000000011111111110000000000000000001111111100000000000000000000000000000000000000000000000
00000000000000000000000000000000000000000000011111111110000000000000000001111111100000000000000000000000000000000000000000000000
00000000000000000000000000000000000000000000001111111110000000000000000001111111100000000000000000000000000000000000000000000000
00000000000000000000000000000000000000000000001111111110000000000000000001111111100000000000000000000000000000000000000000000000
00000000000000000000000000000000000000000000000111111110000000000000000001111111100000000000000000000000000000000000000000000000
00000000000000000000000000000000000000000000000111111110000000000000000001111111100000000000000000000000000000000000000000000000
00000000000000000000000000000000000000000000000111111110000000000000000001111111100000000000000000000000000000000000000000000000
00000000000000000000000000000000000000000000000011111110000000000000000001111111000000000000000000000000000000000000000000000000
00000000000000000000000000000000000000000000000001111100000000000000000001111111000000000000000000000000000000000000000000000000
00000000000000000000000000000000000000000000000001111000000000000000000001111111000000000000000000000000000000000000000000000000
00000000000000000000000000000000000000000000000000000000000000000000000001111111000000000000000000000000000000000000000000000000
00000000000000000000000000000000000000000000000000000000000000000000000001111111000000000000000000000000000000000000000000000000
00000000000000000000000000000000000000000000000000000000000000000000000001111111000000000000000000000000000000000000000000000000
00000000000000000000000000000000000000000000000000000000000000000000000011111111000000000000000000000000000000000000000000000000
00000000000000000000000000000000000000000000000000000000000000000000000011111111000000000000000000000000000000000000000000000000
00000000000000000000000000000000000000000000000000000000000000000000000011111111000000000000000000000000000000000000000000000000
00000000000000000000000000000000000000000000000000000000000000000000000011111111000000000000000000000000000000000000000000000000
00000000000000000000000000000000000000000000000000000000000000000000000011111111000000000000000000000000000000000000000000000000
00000000000000000000000000000000000000000000000000000000000000000000000011111111000000000000000000000000000000000000000000000000
00000000000000000000000000000000000000000000000000000000000000000000000011111111000000000000000000000000000000000000000000000000
00000000000000000000000000000000000000000000000000000000000000000000000011111111000000000000000000000000000000000000000000000000
00000000000000000000000000000000000000000000000000000000000000000000000011111111000000000000000000000000000000000000000000000000
00000000000000000000000000000000000000000000000000000000000000000000000011111111000000000000000000000000000000000000000000000000
00000000000000000000000000000000000000000000000000000000000000000000000011111111000000000000000000000000000000000000000000000000
00000000000000000000000000000000000000000000000000000000000000000000000001111111000000000000000000000000000000000000000000000000
00000000000000000000000000000000000000000000000000000000000000000000000001111111100000000000000000000000000000000000000000000000
00000000000000000000000000000000000000000000000000000000000000000000000001111111100000000000000000000000000000000000000000000000
00000000000000000000000000000000000000000000000000000000000000000000000001111111110000000000000000000000000000000000000000000000
00000000000000000000000000000000000000000000000000000000000000000000000001111111110000000000000000000000000000000000000000000000
00000000000000000000000000000000000000000000000000000000000000000000000001111111100000000000000000000000000000000000000000000000
00000000000000000000000000000000000000000000000000000000000000000000000001111111110000000000000000000000000000000000000000000000
00000000000000000000000000000000000000000000000000000000000000000000000000111111110000000000000000000000000000000000000000000000
00000000000000000000000000000000000000000000000000000000000000000000000000111111110000000000000000000000000000000000000000000000
00000000000000000000000000000000000000000000000000000000000000000000000000111111110000000000000000000000000000000000000000000000
00000000000000000000000000000000000000000000000000000000000000000000000000111111110000000000000000000000000000000000000000000000
00000000000000000000000000000000000000000000000000000000000000000000000000111111110000000000000000000000000000000000000000000000
00000000000000000000000000000000000000000000000000000000000000000000000000111111111000000000000000000000000000000000000000000000
00000000000000000000000000000000000000000000000000000000000000000000000000111111110000000000000000000000000000000000000000000000
00000000000000000000000000000000000000000000000000000000000000000000000000111111110000000000000000000000000000000000000000000000
00000000000000000000000000000000000000000000000000000000000000000000000000000000000000000000000000000000000000000000000000000000
00000000000000000000000000000000000000000000000000000000000000000000000000000000000000000000000000000000000000000000000000000000
00000000000000000000000000000000000000000000000000000000000000000000000000000000000000000000000000000000000000000000000000000000
00000000000000000000000000000000000000000000000000000000000000000000000000000000000000000000000000000000000000000000000000000000
00000000000000000000000000000000000000000000000000000000000000000000000000000000000000000000000000000000000000000000000000000000
00000000000000000000000000000000000000000000000000000000000000000000000000000000000000000000000000000000000000000000000000000000
00000000000000000000000000000000000000000000000000000000000000000000000000000000000000000000000000000000000000000000000000000000
00000000000000000000000000000000000000000000000000000000000000000000000000000000000000000000000000000000000000000000000000000000
00000000000000000000000000000000000000000000000000000000000000000000000000000000000000000000000000000000000000000000000000000000
00000000000000000000000000000000000000000000000000000000000000000000000000000000000000000000000000000000000000000000000000000000
00000000000000000000000000000000000000000000000000000000000000000000000000000000000000000000000000000000000000000000000000000000
00000000000000000000000000000000000000000000000000000000000000000000000000000000000000000000000000000000000000000000000000000000
00000000000000000000000000000000000000000000000000000000000000000000000000000000000000000000000000000000000000000000000000000000
00000000000000000000000000000000000000000000000000000000000000000000000000000000000000000000000000000000000000000000000000000000
00000000000000000000000000000000000000000000000000000000000000000000000000000000000000000000000000000000000000000000000000000000
00000000000000000000000000000000000000000000000000000000000000000000000000000000000000000000000000000000000000000000000000000000
00000000000000000000000000000000000000000000000000000000000000000000000000000000000000000000000000000000000000000000000000000000
00000000000000000000000000000000000000000000000000000000000000000000000000000000000000000000000000000000000000000000000000000000
00000000000000000000000000000000000000000000000000000000000000000000000000000000000000000000000000000000000000000000000000000000
00000000000000000000000000000000000000000000000000000000000000000000000000000000000000000000000000000000000000000000000000000000
00000000000000000000000000000000000000000000000000000000000000000000000000000000000000000000000000000000000000000000000000000000
00000000000000000000000000000000000000000000000000000000000000000000000000000000000000000000000000000000000000000000000000000000
00000000000000000000000000000000000000000000000000000000000000000000000000000000000000000000000000000000000000000000000000000000
00000000000000000000000000000000000000000000000000000000000000000000000000000000000000000000000000000000000000000000000000000000
00000000000000000000000000000000000000000000000000000000000000000000000000000000000000000000000000000000000000000000000000000000
00000000000000000000000000000000000000000000000000000000000000000000000000000000000000000000000000000000000000000000000000000000
00000000000000000000000000000000000000000000000000000000000000000000000000000000000000000000000000000000000000000000000000000000
00000000000000000000000000000000000000000000000000000000000000000000000000000000000000000000000000000000000000000000000000000000
00000000000000000000000000000000000000000000000000000000000000000000000000000000000000000000000000000000000000000000000000000000
00000000000000000000000000000000000000000000000000000000000000000000000000000000000000000000000000000000000000000000000000000000
00000000000000000000000000000000000000000000000000000000000000000000000000000000000000000000000000000000000000000000000000000000
00000000000000000000000000000000000000000000000000000000000000000000000000000000000000000000000000000000000000000000000000000000
00000000000000000000000000000000000000000000000000000000000000000000000000000000000000000000000000000000000000000000000000000000
00000000000000000000000000000000000000000000000000000000000000000000000000000000000000000000000000000000000000000000000000000000
00000000000000000000000000000000000000000000000000000000000000000000000000000000000000000000000000000000000000000000000000000000
00000000000000000000000000000000000000000000000000000000000000000000000000000000000000000000000000000000000000000000000000000000
00000000000000000000000000000000000000000000000000000000000000000000000000000000000000000000000000000000000000000000000000000000
