P1
# NISTd8.362
# 8
# Creado por el programa Pasa128aPBM.p
128 128
00000000000000000000000000000000000000000000000000000000000000000000000000000000000000000000000000000000000000000000000000000000
00000000000000000000000000000000000000000000000000000000000000000000000000000000000000000000000000000000000000000000000000000000
00000000000000000000000000000000000000000000000000000000000000000000000000000000000000000000000000000000000000000000000000000000
00000000000000000000000000000000000000000000000000000000000000000000000000000000000000000000000000000000000000000000000000000000
00000000000000000000000000000000000000000000000000000000000000000000000000000000000000000000000000000000000000000000000000000000
00000000000000000000000000000000000000000000000000000000000000000000000000000000000000000000000000000000000000000000000000000000
00000000000000000000000000000000000000000000000000000000000000000000000000000000000000000000000000000000000000000000000000000000
00000000000000000000000000000000000000000000000000000000000000000000000000000000000000000000000000000000000000000000000000000000
00000000000000000000000000000000000000000000000000000000000000000000000000000000000000000000000000000000000000000000000000000000
00000000000000000000000000000000000000000000000000000000000000000000000000000000000000000000000000000000000000000000000000000000
00000000000000000000000000000000000000000000000000000000000000000000000000000000000000000000000000000000000000000000000000000000
00000000000000000000000000000000000000000000000000000000000000000000000000000000000000000000000000000000000000000000000000000000
00000000000000000000000000000000000000000000000000000000000000000000000000000000000000000000000000000000000000000000000000000000
00000000000000000000000000000000000000000000000000000000000000000000000000000000000000000000000000000000000000000000000000000000
00000000000000000000000000000000000000000000000000000000000000000000000000000000000000000000000000000000000000000000000000000000
00000000000000000000000000000000000000000000000000000000000000000000000000000000000000000000000000000000000000000000000000000000
00000000000000000000000000000000000000000000000000000000000000000000000000000000000000000000000000000000000000000000000000000000
00000000000000000000000000000000000000000000000000000000000000000000000000000000000000000000000000000000000000000000000000000000
00000000000000000000000000000000000000000000000000000000000000000000000000000000000000000000000000000000000000000000000000000000
00000000000000000000000000000000000000000000000000000000000000000000000000000000000000000000000000000000000000000000000000000000
00000000000000000000000000000000000000000000000000000000000000000000000000000000000000000000000000000000000000000000000000000000
00000000000000000000000000000000000000000000000000000000000000000000000000000000000000000000000000000000000000000000000000000000
00000000000000000000000000000000000000000000000000000000000000000000000000000000000000000000000000000000000000000000000000000000
00000000000000000000000000000000000000000000000000000000000000000000000000000000000000000000000000000000000000000000000000000000
00000000000000000000000000000000000000000000000000000000000000000000000000000000000000000000000000000000000000000000000000000000
00000000000000000000000000000000000000000000000000000000000000000000000000000000000000000000000000000000000000000000000000000000
00000000000000000000000000000000000000000000000000000000000000000000000000000000000000000000000000000000000000000000000000000000
00000000000000000000000000000000000000000000000000000000000000000000000000000000000000000000000000000000000000000000000000000000
00000000000000000000000000000000000000000000000000000000000000000000000000000000000000000000000000000000000000000000000000000000
00000000000000000000000000000000000000000000000000000000000000000000000000000000000000000000000000000000000000000000000000000000
00000000000000000000000000000000000000000000000000000000000000000000000000000000000000000000000000000000000000000000000000000000
00000000000000000000000000000000000000000000000000000000000000000000000000000000000000000000000000000000000000000000000000000000
00000000000000000000000000000000000000000000000000000000000000000000000000000000000000000000000000000000000000000000000000000000
00000000000000000000000000000000000000000000000000000000000000000000000000000000000000000000000000000000000000000000000000000000
00000000000000000000000000000000000000000000000000000000000000000000000000000000000000000000000000000000000000000000000000000000
00000000000000000000000000000000000000000000000000000000000000000000000000000000000000000000000000000000000000000000000000000000
00000000000000000000000000000000000000000000000000000000000000000000000000000000000000000000000000000000000000000000000000000000
00000000000000000000000000000000000000000000000000000000000000000000000000000000000000000000000000000000000000000000000000000000
00000000000000000000000000000000000000000000000000000000000000000000000000000000000000000000000000000000000000000000000000000000
00000000000000000000000000000000000000000000000000000000000000000000111111110000000000000000000000000000000000000000000000000000
00000000000000000000000000000000000000000000000000000000000000000111111111111000000000000000000000000000000000000000000000000000
00000000000000000000000000000000000000000000000000000000000000011111111111111100000000000000000000000000000000000000000000000000
00000000000000000000000000000000000000000000000000000000000001111111100111111100000000000000000000000000000000000000000000000000
00000000000000000000000000000000000000000000000000000000001111111111100001111110000000000000000000000000000000000000000000000000
00000000000000000000000000000000000000000000000000000000011111111111000001111111111000000000000000000000000000000000000000000000
00000000000000000000000000000000000000000000000000000000111111111110000000111111111000000000000000000000000000000000000000000000
00000000000000000000000000000000000000000000000000000001111111111100000000111111111000000000000000000000000000000000000000000000
00000000000000000000000000000000000000000000000000000011111111110000000111111111111000000000000000000000000000000000000000000000
00000000000000000000000000000000000000000000000000000111111111000000001111111111111000000000000000000000000000000000000000000000
00000000000000000000000000000000000000000000000000000111111110000000111111111111110000000000000000000000000000000000000000000000
00000000000000000000000000000000000000000000000000000111111000000011111111111111000000000000000000000000000000000000000000000000
00000000000000000000000000000000000000000000000000000111111000000111111111111100000000000000000000000000000000000000000000000000
00000000000000000000000000000000000000000000000000000111111000111111111111110000000000000000000000000000000000000000000000000000
00000000000000000000000000000000000000000000000000000111111001111111111110000000000000000000000000000000000000000000000000000000
00000000000000000000000000000000000000000000000000000111111111111111111000000000000000000000000000000000000000000000000000000000
00000000000000000000000000000000000000000000000000000111111111111111110000000000000000000000000000000000000000000000000000000000
00000000000000000000000000000000000000000000000000000111111111111111000000000000000000000000000000000000000000000000000000000000
00000000000000000000000000000000000000000000000000000111111111111100000000000000000000000000000000000000000000000000000000000000
00000000000000000000000000000000000000000000000000000111111111111000000000000000000000000000000000000000000000000000000000000000
00000000000000000000000000000000000000000000000000000111111111100000000000000000000000000000000000000000000000000000000000000000
00000000000000000000000000000000000000000000000000000111111111000000000000000000000000000000000000000000000000000000000000000000
00000000000000000000000000000000000000000000000000001111111110000000000000000000000000000000000000000000000000000000000000000000
00000000000000000000000000000000000000000000000000111111111110000000000000000000000000000000000000000000000000000000000000000000
00000000000000000000000000000000000000000000000000111111111110000000000000000000000000000000000000000000000000000000000000000000
00000000000000000000000000000000000000000000000001111111111110000000000000000000000000000000000000000000000000000000000000000000
00000000000000000000000000000000000000000000000111111111111100000000000000000000000000000000000000000000000000000000000000000000
00000000000000000000000000000000000000000000000111111111111100000000000000000000000000000000000000000000000000000000000000000000
00000000000000000000000000000000000000000000001111111111111100000000000000000000000000000000000000000000000000000000000000000000
00000000000000000000000000000000000000000000011111111111111100000000000000000000000000000000000000000000000000000000000000000000
00000000000000000000000000000000000000000000111111110111111100000000000000000000000000000000000000000000000000000000000000000000
00000000000000000000000000000000000000000000111111100111111000000000000000000000000000000000000000000000000000000000000000000000
00000000000000000000000000000000000000000000111111000111111000000000000000000000000000000000000000000000000000000000000000000000
00000000000000000000000000000000000000000001111111000111111000000000000000000000000000000000000000000000000000000000000000000000
00000000000000000000000000000000000000000001111110000111111000000000000000000000000000000000000000000000000000000000000000000000
00000000000000000000000000000000000000000001111110000111111000000000000000000000000000000000000000000000000000000000000000000000
00000000000000000000000000000000000000000001111110001111111000000000000000000000000000000000000000000000000000000000000000000000
00000000000000000000000000000000000000000011111110001111111000000000000000000000000000000000000000000000000000000000000000000000
00000000000000000000000000000000000000000011111110011111111000000000000000000000000000000000000000000000000000000000000000000000
00000000000000000000000000000000000000000011111100111111110000000000000000000000000000000000000000000000000000000000000000000000
00000000000000000000000000000000000000000011111110111111100000000000000000000000000000000000000000000000000000000000000000000000
00000000000000000000000000000000000000000011111111111111000000000000000000000000000000000000000000000000000000000000000000000000
00000000000000000000000000000000000000000011111111111111000000000000000000000000000000000000000000000000000000000000000000000000
00000000000000000000000000000000000000000011111111111111000000000000000000000000000000000000000000000000000000000000000000000000
00000000000000000000000000000000000000000011111111111110000000000000000000000000000000000000000000000000000000000000000000000000
00000000000000000000000000000000000000000001111111111000000000000000000000000000000000000000000000000000000000000000000000000000
00000000000000000000000000000000000000000000111111111000000000000000000000000000000000000000000000000000000000000000000000000000
00000000000000000000000000000000000000000000111111100000000000000000000000000000000000000000000000000000000000000000000000000000
00000000000000000000000000000000000000000000000000000000000000000000000000000000000000000000000000000000000000000000000000000000
00000000000000000000000000000000000000000000000000000000000000000000000000000000000000000000000000000000000000000000000000000000
00000000000000000000000000000000000000000000000000000000000000000000000000000000000000000000000000000000000000000000000000000000
00000000000000000000000000000000000000000000000000000000000000000000000000000000000000000000000000000000000000000000000000000000
00000000000000000000000000000000000000000000000000000000000000000000000000000000000000000000000000000000000000000000000000000000
00000000000000000000000000000000000000000000000000000000000000000000000000000000000000000000000000000000000000000000000000000000
00000000000000000000000000000000000000000000000000000000000000000000000000000000000000000000000000000000000000000000000000000000
00000000000000000000000000000000000000000000000000000000000000000000000000000000000000000000000000000000000000000000000000000000
00000000000000000000000000000000000000000000000000000000000000000000000000000000000000000000000000000000000000000000000000000000
00000000000000000000000000000000000000000000000000000000000000000000000000000000000000000000000000000000000000000000000000000000
00000000000000000000000000000000000000000000000000000000000000000000000000000000000000000000000000000000000000000000000000000000
00000000000000000000000000000000000000000000000000000000000000000000000000000000000000000000000000000000000000000000000000000000
00000000000000000000000000000000000000000000000000000000000000000000000000000000000000000000000000000000000000000000000000000000
00000000000000000000000000000000000000000000000000000000000000000000000000000000000000000000000000000000000000000000000000000000
00000000000000000000000000000000000000000000000000000000000000000000000000000000000000000000000000000000000000000000000000000000
00000000000000000000000000000000000000000000000000000000000000000000000000000000000000000000000000000000000000000000000000000000
00000000000000000000000000000000000000000000000000000000000000000000000000000000000000000000000000000000000000000000000000000000
00000000000000000000000000000000000000000000000000000000000000000000000000000000000000000000000000000000000000000000000000000000
00000000000000000000000000000000000000000000000000000000000000000000000000000000000000000000000000000000000000000000000000000000
00000000000000000000000000000000000000000000000000000000000000000000000000000000000000000000000000000000000000000000000000000000
00000000000000000000000000000000000000000000000000000000000000000000000000000000000000000000000000000000000000000000000000000000
00000000000000000000000000000000000000000000000000000000000000000000000000000000000000000000000000000000000000000000000000000000
00000000000000000000000000000000000000000000000000000000000000000000000000000000000000000000000000000000000000000000000000000000
00000000000000000000000000000000000000000000000000000000000000000000000000000000000000000000000000000000000000000000000000000000
00000000000000000000000000000000000000000000000000000000000000000000000000000000000000000000000000000000000000000000000000000000
00000000000000000000000000000000000000000000000000000000000000000000000000000000000000000000000000000000000000000000000000000000
00000000000000000000000000000000000000000000000000000000000000000000000000000000000000000000000000000000000000000000000000000000
00000000000000000000000000000000000000000000000000000000000000000000000000000000000000000000000000000000000000000000000000000000
00000000000000000000000000000000000000000000000000000000000000000000000000000000000000000000000000000000000000000000000000000000
00000000000000000000000000000000000000000000000000000000000000000000000000000000000000000000000000000000000000000000000000000000
00000000000000000000000000000000000000000000000000000000000000000000000000000000000000000000000000000000000000000000000000000000
00000000000000000000000000000000000000000000000000000000000000000000000000000000000000000000000000000000000000000000000000000000
00000000000000000000000000000000000000000000000000000000000000000000000000000000000000000000000000000000000000000000000000000000
00000000000000000000000000000000000000000000000000000000000000000000000000000000000000000000000000000000000000000000000000000000
00000000000000000000000000000000000000000000000000000000000000000000000000000000000000000000000000000000000000000000000000000000
00000000000000000000000000000000000000000000000000000000000000000000000000000000000000000000000000000000000000000000000000000000
00000000000000000000000000000000000000000000000000000000000000000000000000000000000000000000000000000000000000000000000000000000
00000000000000000000000000000000000000000000000000000000000000000000000000000000000000000000000000000000000000000000000000000000
00000000000000000000000000000000000000000000000000000000000000000000000000000000000000000000000000000000000000000000000000000000
00000000000000000000000000000000000000000000000000000000000000000000000000000000000000000000000000000000000000000000000000000000
00000000000000000000000000000000000000000000000000000000000000000000000000000000000000000000000000000000000000000000000000000000
