P1
# NISTd8.2473
# 8
# Creado por el programa Pasa128aPBM.p
128 128
00000000000000000000000000000000000000000000000000000000000000000000000000000000000000000000000000000000000000000000000000000000
00000000000000000000000000000000000000000000000000000000000000000000000000000000000000000000000000000000000000000000000000000000
00000000000000000000000000000000000000000000000000000000000000000000000000000000000000000000000000000000000000000000000000000000
00000000000000000000000000000000000000000000000000000000000000000000000000000000000000000000000000000000000000000000000000000000
00000000000000000000000000000000000000000000000000000000000000000000000000000000000000000000000000000000000000000000000000000000
00000000000000000000000000000000000000000000000000000000000000000000000000000000000000000000000000000000000000000000000000000000
00000000000000000000000000000000000000000000000000000000000000000000000000000000000000000000000000000000000000000000000000000000
00000000000000000000000000000000000000000000000000000000000000000000000000000000000000000000000000000000000000000000000000000000
00000000000000000000000000000000000000000000000000000000000000000000000000000000000000000000000000000000000000000000000000000000
00000000000000000000000000000000000000000000000000000000000000000000000000000000000000000000000000000000000000000000000000000000
00000000000000000000000000000000000000000000000000000000000000000000000000000000000000000000000000000000000000000000000000000000
00000000000000000000000000000000000000000000000000000000000000000000000000000000000000000000000000000000000000000000000000000000
00000000000000000000000000000000000000000000000000000000000000000000000000000000000000000000000000000000000000000000000000000000
00000000000000000000000000000000000000000000000000000000000000000000000000000000000000000000000000000000000000000000000000000000
00000000000000000000000000000000000000000000000000000000000000000000000000000000000000000000000000000000000000000000000000000000
00000000000000000000000000000000000000000000000000000000000000000000000000000000000000000000000000000000000000000000000000000000
00000000000000000000000000000000000000000000000000000000000000000000000000000000000000000000000000000000000000000000000000000000
00000000000000000000000000000000000000000000000000000000000000000000000000000000000000000000000000000000000000000000000000000000
00000000000000000000000000000000000000000000000000000000000000000000000000000000000000000000000000000000000000000000000000000000
00000000000000000000000000000000000000000000000000000000000000000000000000000000000000000000000000000000000000000000000000000000
00000000000000000000000000000000000000000000000000000000000000000000000000000000000000000000000000000000000000000000000000000000
00000000000000000000000000000000000000000000000000000000000000000000000000000000000000000000000000000000000000000000000000000000
00000000000000000000000000000000000000000000000000000000000000000000000000000000000000000000000000000000000000000000000000000000
00000000000000000000000000000000000000000000000000000000000000000000000000000000000000000000000000000000000000000000000000000000
00000000000000000000000000000000000000000000000000000000000000000000000000000000000000000000000000000000000000000000000000000000
00000000000000000000000000000000000000000000000000000000000000000000000000000000000000000000000000000000000000000000000000000000
00000000000000000000000000000000000000000000000000000000000000000000000000000000000000000000000000000000000000000000000000000000
00000000000000000000000000000000000000000000000000000000000000000000000000000000000000000000000000000000000000000000000000000000
00000000000000000000000000000000000000000000000000000000000000000000000000000000000000000000000000000000000000000000000000000000
00000000000000000000000000000000000000000000000000000000000000000000000000000000000000000000000000000000000000000000000000000000
00000000000000000000000000000000000000000000000000000000000000000000000000000000000000000000000000000000000000000000000000000000
00000000000000000000000000000000000000000000000000000000000000000000000000000000000000000000000000000000000000000000000000000000
00000000000000000000000000000000000000000000000000000000000000000000000000000000000000000000000000000000000000000000000000000000
00000000000000000000000000000000000000000000000000000000000000000000000000000000000000000000000000000000000000000000000000000000
00000000000000000000000000000000000000000000000000000000000000000000000000000000000000000000000000000000000000000000000000000000
00000000000000000000000000000000000000000000000000000000000000000000000000000000000000000000000000000000000000000000000000000000
00000000000000000000000000000000000000000000000000000000000000000000000000000000000000000000000000000000000000000000000000000000
00000000000000000000000000000000000000000000000000000000000000000000000000000000000000000000000000000000000000000000000000000000
00000000000000000000000000000000000000000000000000000000000000000000000000000000000000000000000000000000000000000000000000000000
00000000000000000000000000000000000000000000000000000000000000000000000000000000000000000000000000000000000000000000000000000000
00000000000000000000000000000000000000000000000000000000000000011100000000000000000000000000000000000000000000000000000000000000
00000000000000000000000000000000000000000000000000000000000011111111110000000000000000000000000000000000000000000000000000000000
00000000000000000000000000000000000000000000000000000000001111111111111100000000000000000000000000000000000000000000000000000000
00000000000000000000000000000000000000000000000000000011111111111111111110000000000000000000000000000000000000000000000000000000
00000000000000000000000000000000000000000000000000000111111111111111111111100000000000000000000000000000000000000000000000000000
00000000000000000000000000000000000000000000000000001111111111111111111111111000000000000000000000000000000000000000000000000000
00000000000000000000000000000000000000000000000000011111111111100011111111111100000000000000000000000000000000000000000000000000
00000000000000000000000000000000000000000000000000111111111100000000011111111111100000000000000000000000000000000000000000000000
00000000000000000000000000000000000000000000000001111111100000000000001111111111111000000000000000000000000000000000000000000000
00000000000000000000000000000000000000000000000001111110000000000000000011111111111000000000000000000000000000000000000000000000
00000000000000000000000000000000000000000000000001111110000000000000001111111111111000000000000000000000000000000000000000000000
00000000000000000000000000000000000000000000000001111110000000000000111111111111100000000000000000000000000000000000000000000000
00000000000000000000000000000000000000000000000001111110000000000011111111111110000000000000000000000000000000000000000000000000
00000000000000000000000000000000000000000000000000111111000000001111111111111000000000000000000000000000000000000000000000000000
00000000000000000000000000000000000000000000000000011111110000001111111111110000000000000000000000000000000000000000000000000000
00000000000000000000000000000000000000000000000000011111110000111111111110000000000000000000000000000000000000000000000000000000
00000000000000000000000000000000000000000000000000001111111001111111111100000000000000000000000000000000000000000000000000000000
00000000000000000000000000000000000000000000000000000111111111111111110000000000000000000000000000000000000000000000000000000000
00000000000000000000000000000000000000000000000000000011111111111111100000000000000000000000000000000000000000000000000000000000
00000000000000000000000000000000000000000000000000000011111111111110000000000000000000000000000000000000000000000000000000000000
00000000000000000000000000000000000000000000000000000011111111111100000000000000000000000000000000000000000000000000000000000000
00000000000000000000000000000000000000000000000000000111111111111000000000000000000000000000000000000000000000000000000000000000
00000000000000000000000000000000000000000000000000001111111111111000000000000000000000000000000000000000000000000000000000000000
00000000000000000000000000000000000000000000000000001111111111111100000000000000000000000000000000000000000000000000000000000000
00000000000000000000000000000000000000000000000000011111111111111100000000000000000000000000000000000000000000000000000000000000
00000000000000000000000000000000000000000000000001111111110001111110000000000000000000000000000000000000000000000000000000000000
00000000000000000000000000000000000000000000000011111111100001111110000000000000000000000000000000000000000000000000000000000000
00000000000000000000000000000000000000000000001111111111000001111110000000000000000000000000000000000000000000000000000000000000
00000000000000000000000000000000000000000000001111111110000000111110000000000000000000000000000000000000000000000000000000000000
00000000000000000000000000000000000000000000011111111000000000111110000000000000000000000000000000000000000000000000000000000000
00000000000000000000000000000000000000000000111111110000000001111110000000000000000000000000000000000000000000000000000000000000
00000000000000000000000000000000000000000001111111100000000001111110000000000000000000000000000000000000000000000000000000000000
00000000000000000000000000000000000000000001111111000000000001111110000000000000000000000000000000000000000000000000000000000000
00000000000000000000000000000000000000000011111110000000000001111110000000000000000000000000000000000000000000000000000000000000
00000000000000000000000000000000000000000111111110000000000011111100000000000000000000000000000000000000000000000000000000000000
00000000000000000000000000000000000000000111111100000000001111111000000000000000000000000000000000000000000000000000000000000000
00000000000000000000000000000000000000001111111000000000111111110000000000000000000000000000000000000000000000000000000000000000
00000000000000000000000000000000000000001111111000000001111111110000000000000000000000000000000000000000000000000000000000000000
00000000000000000000000000000000000000001111111000000011111111000000000000000000000000000000000000000000000000000000000000000000
00000000000000000000000000000000000000001111111100001111111110000000000000000000000000000000000000000000000000000000000000000000
00000000000000000000000000000000000000001111111111111111111100000000000000000000000000000000000000000000000000000000000000000000
00000000000000000000000000000000000000000111111111111111110000000000000000000000000000000000000000000000000000000000000000000000
00000000000000000000000000000000000000000011111111111111100000000000000000000000000000000000000000000000000000000000000000000000
00000000000000000000000000000000000000000001111111111110000000000000000000000000000000000000000000000000000000000000000000000000
00000000000000000000000000000000000000000000111111110000000000000000000000000000000000000000000000000000000000000000000000000000
00000000000000000000000000000000000000000000001111000000000000000000000000000000000000000000000000000000000000000000000000000000
00000000000000000000000000000000000000000000000000000000000000000000000000000000000000000000000000000000000000000000000000000000
00000000000000000000000000000000000000000000000000000000000000000000000000000000000000000000000000000000000000000000000000000000
00000000000000000000000000000000000000000000000000000000000000000000000000000000000000000000000000000000000000000000000000000000
00000000000000000000000000000000000000000000000000000000000000000000000000000000000000000000000000000000000000000000000000000000
00000000000000000000000000000000000000000000000000000000000000000000000000000000000000000000000000000000000000000000000000000000
00000000000000000000000000000000000000000000000000000000000000000000000000000000000000000000000000000000000000000000000000000000
00000000000000000000000000000000000000000000000000000000000000000000000000000000000000000000000000000000000000000000000000000000
00000000000000000000000000000000000000000000000000000000000000000000000000000000000000000000000000000000000000000000000000000000
00000000000000000000000000000000000000000000000000000000000000000000000000000000000000000000000000000000000000000000000000000000
00000000000000000000000000000000000000000000000000000000000000000000000000000000000000000000000000000000000000000000000000000000
00000000000000000000000000000000000000000000000000000000000000000000000000000000000000000000000000000000000000000000000000000000
00000000000000000000000000000000000000000000000000000000000000000000000000000000000000000000000000000000000000000000000000000000
00000000000000000000000000000000000000000000000000000000000000000000000000000000000000000000000000000000000000000000000000000000
00000000000000000000000000000000000000000000000000000000000000000000000000000000000000000000000000000000000000000000000000000000
00000000000000000000000000000000000000000000000000000000000000000000000000000000000000000000000000000000000000000000000000000000
00000000000000000000000000000000000000000000000000000000000000000000000000000000000000000000000000000000000000000000000000000000
00000000000000000000000000000000000000000000000000000000000000000000000000000000000000000000000000000000000000000000000000000000
00000000000000000000000000000000000000000000000000000000000000000000000000000000000000000000000000000000000000000000000000000000
00000000000000000000000000000000000000000000000000000000000000000000000000000000000000000000000000000000000000000000000000000000
00000000000000000000000000000000000000000000000000000000000000000000000000000000000000000000000000000000000000000000000000000000
00000000000000000000000000000000000000000000000000000000000000000000000000000000000000000000000000000000000000000000000000000000
00000000000000000000000000000000000000000000000000000000000000000000000000000000000000000000000000000000000000000000000000000000
00000000000000000000000000000000000000000000000000000000000000000000000000000000000000000000000000000000000000000000000000000000
00000000000000000000000000000000000000000000000000000000000000000000000000000000000000000000000000000000000000000000000000000000
00000000000000000000000000000000000000000000000000000000000000000000000000000000000000000000000000000000000000000000000000000000
00000000000000000000000000000000000000000000000000000000000000000000000000000000000000000000000000000000000000000000000000000000
00000000000000000000000000000000000000000000000000000000000000000000000000000000000000000000000000000000000000000000000000000000
00000000000000000000000000000000000000000000000000000000000000000000000000000000000000000000000000000000000000000000000000000000
00000000000000000000000000000000000000000000000000000000000000000000000000000000000000000000000000000000000000000000000000000000
00000000000000000000000000000000000000000000000000000000000000000000000000000000000000000000000000000000000000000000000000000000
00000000000000000000000000000000000000000000000000000000000000000000000000000000000000000000000000000000000000000000000000000000
00000000000000000000000000000000000000000000000000000000000000000000000000000000000000000000000000000000000000000000000000000000
00000000000000000000000000000000000000000000000000000000000000000000000000000000000000000000000000000000000000000000000000000000
00000000000000000000000000000000000000000000000000000000000000000000000000000000000000000000000000000000000000000000000000000000
00000000000000000000000000000000000000000000000000000000000000000000000000000000000000000000000000000000000000000000000000000000
00000000000000000000000000000000000000000000000000000000000000000000000000000000000000000000000000000000000000000000000000000000
00000000000000000000000000000000000000000000000000000000000000000000000000000000000000000000000000000000000000000000000000000000
00000000000000000000000000000000000000000000000000000000000000000000000000000000000000000000000000000000000000000000000000000000
00000000000000000000000000000000000000000000000000000000000000000000000000000000000000000000000000000000000000000000000000000000
00000000000000000000000000000000000000000000000000000000000000000000000000000000000000000000000000000000000000000000000000000000
00000000000000000000000000000000000000000000000000000000000000000000000000000000000000000000000000000000000000000000000000000000
00000000000000000000000000000000000000000000000000000000000000000000000000000000000000000000000000000000000000000000000000000000
