P1
# NISTd8.874
# 8
# Creado por el programa Pasa128aPBM.p
128 128
00000000000000000000000000000000000000000000000000000000000000000000000000000000000000000000000000000000000000000000000000000000
00000000000000000000000000000000000000000000000000000000000000000000000000000000000000000000000000000000000000000000000000000000
00000000000000000000000000000000000000000000000000000000000000000000000000000000000000000000000000000000000000000000000000000000
00000000000000000000000000000000000000000000000000000000000000000000000000000000000000000000000000000000000000000000000000000000
00000000000000000000000000000000000000000000000000000000000000000000000000000000000000000000000000000000000000000000000000000000
00000000000000000000000000000000000000000000000000000000000000000000000000000000000000000000000000000000000000000000000000000000
00000000000000000000000000000000000000000000000000000000000000000000000000000000000000000000000000000000000000000000000000000000
00000000000000000000000000000000000000000000000000000000000000000000000000000000000000000000000000000000000000000000000000000000
00000000000000000000000000000000000000000000000000000000000000000000000000000000000000000000000000000000000000000000000000000000
00000000000000000000000000000000000000000000000000000000000000000000000000000000000000000000000000000000000000000000000000000000
00000000000000000000000000000000000000000000000000000000000000000000000000000000000000000000000000000000000000000000000000000000
00000000000000000000000000000000000000000000000000000000000000000000000000000000000000000000000000000000000000000000000000000000
00000000000000000000000000000000000000000000000000000000000000000000000000000000000000000000000000000000000000000000000000000000
00000000000000000000000000000000000000000000000000000000000000000000000000000000000000000000000000000000000000000000000000000000
00000000000000000000000000000000000000000000000000000000000000000000000000000000000000000000000000000000000000000000000000000000
00000000000000000000000000000000000000000000000000000000000000000000000000000000000000000000000000000000000000000000000000000000
00000000000000000000000000000000000000000000000000000000000000000000000000000000000000000000000000000000000000000000000000000000
00000000000000000000000000000000000000000000000000000000000000000000000000000000000000000000000000000000000000000000000000000000
00000000000000000000000000000000000000000000000000000000000000000000000000000000000000000000000000000000000000000000000000000000
00000000000000000000000000000000000000000000000000000000000000000000000000000000000000000000000000000000000000000000000000000000
00000000000000000000000000000000000000000000000000000000000000000000000000000000000000000000000000000000000000000000000000000000
00000000000000000000000000000000000000000000000000000000000000000000000000000000000000000000000000000000000000000000000000000000
00000000000000000000000000000000000000000000000000000000000000000000000000000000000000000000000000000000000000000000000000000000
00000000000000000000000000000000000000000000000000000000000000000000000000000000000000000000000000000000000000000000000000000000
00000000000000000000000000000000000000000000000000000000000000000000000000000000000000000000000000000000000000000000000000000000
00000000000000000000000000000000000000000000000000000000000000000000000000000000000000000000000000000000000000000000000000000000
00000000000000000000000000000000000000000000000000000000000000000000000000000000000000000000000000000000000000000000000000000000
00000000000000000000000000000000000000000000000000000000000000000000000000000000000000000000000000000000000000000000000000000000
00000000000000000000000000000000000000000000000000000000000000000000000000000000000000000000000000000000000000000000000000000000
00000000000000000000000000000000000000000000000000000000000000000000000000000000000000000000000000000000000000000000000000000000
00000000000000000000000000000000000000000000000000000000000000000000000000000000000000000000000000000000000000000000000000000000
00000000000000000000000000000000000000000000000000000000000000000000000000000000000000000000000000000000000000000000000000000000
00000000000000000000000000000000000000000000000000000000000000000000000000000000000000000000000000000000000000000000000000000000
00000000000000000000000000000000000000000000000000000000000000000000000000000000000000000000000000000000000000000000000000000000
00000000000000000000000000000000000000000000000000000000000000000000000000000000000000000000000000000000000000000000000000000000
00000000000000000000000000000000000000000000000000000000000000000000000000000000000000000000000000000000000000000000000000000000
00000000000000000000000000000000000000000000000000000000000000000000000000000000000000000000000000000000000000000000000000000000
00000000000000000000000000000000000000000000000000000000000000000000000000000000000000000000000000000000000000000000000000000000
00000000000000000000000000000000000000000000000000000000000000000000000000000000000000000000000000000000000000000000000000000000
00000000000000000000000000000000000000000000000000000000000000000000001111110000000000000000000000000000000000000000000000000000
00000000000000000000000000000000000000000000000000000000000000000001111111111100000000000000000000000000000000000000000000000000
00000000000000000000000000000000000000000000000000000000000000011111111111111110000000000000000000000000000000000000000000000000
00000000000000000000000000000000000000000000000000000000000001111111111111111110000000000000000000000000000000000000000000000000
00000000000000000000000000000000000000000000000000000000000011111111111111111110000000000000000000000000000000000000000000000000
00000000000000000000000000000000000000000000000000000000001111111111111111111110000000000000000000000000000000000000000000000000
00000000000000000000000000000000000000000000000000000000001111111111100001111110000000000000000000000000000000000000000000000000
00000000000000000000000000000000000000000000000000000000111111111110000001111100000000000000000000000000000000000000000000000000
00000000000000000000000000000000000000000000000000000001111111110000000011111100000000000000000000000000000000000000000000000000
00000000000000000000000000000000000000000000000000000001111111100000001111111000000000000000000000000000000000000000000000000000
00000000000000000000000000000000000000000000000000000011111110000000001111110000000000000000000000000000000000000000000000000000
00000000000000000000000000000000000000000000000000000111111100000000011111110000000000000000000000000000000000000000000000000000
00000000000000000000000000000000000000000000000000000111111000000000111111110000000000000000000000000000000000000000000000000000
00000000000000000000000000000000000000000000000000001111110000000001111111100000000000000000000000000000000000000000000000000000
00000000000000000000000000000000000000000000000000001111110000000001111111000000000000000000000000000000000000000000000000000000
00000000000000000000000000000000000000000000000000001111110000000001111110000000000000000000000000000000000000000000000000000000
00000000000000000000000000000000000000000000000000001111100000000111111100000000000000000000000000000000000000000000000000000000
00000000000000000000000000000000000000000000000000001111100000001111111000000000000000000000000000000000000000000000000000000000
00000000000000000000000000000000000000000000000000001111100000011111110000000000000000000000000000000000000000000000000000000000
00000000000000000000000000000000000000000000000000001111100001111111110000000000000000000000000000000000000000000000000000000000
00000000000000000000000000000000000000000000000000001111110001111111100000000000000000000000000000000000000000000000000000000000
00000000000000000000000000000000000000000000000000000111110011111111000000000000000000000000000000000000000000000000000000000000
00000000000000000000000000000000000000000000000000000111111111111110000000000000000000000000000000000000000000000000000000000000
00000000000000000000000000000000000000000000000000000011111111111110000000000000000000000000000000000000000000000000000000000000
00000000000000000000000000000000000000000000000000000011111111111000000000000000000000000000000000000000000000000000000000000000
00000000000000000000000000000000000000000000000000000011111111110000000000000000000000000000000000000000000000000000000000000000
00000000000000000000000000000000000000000000000000000011111111100000000000000000000000000000000000000000000000000000000000000000
00000000000000000000000000000000000000000000000000000011111111000000000000000000000000000000000000000000000000000000000000000000
00000000000000000000000000000000000000000000000000001111111111000000000000000000000000000000000000000000000000000000000000000000
00000000000000000000000000000000000000000000000000001111111111000000000000000000000000000000000000000000000000000000000000000000
00000000000000000000000000000000000000000000000000111111111111000000000000000000000000000000000000000000000000000000000000000000
00000000000000000000000000000000000000000000000001111111111111110000000000000000000000000000000000000000000000000000000000000000
00000000000000000000000000000000000000000000000001111111101111110000000000000000000000000000000000000000000000000000000000000000
00000000000000000000000000000000000000000000000011111110000111111000000000000000000000000000000000000000000000000000000000000000
00000000000000000000000000000000000000000000000111111100000011111000000000000000000000000000000000000000000000000000000000000000
00000000000000000000000000000000000000000000001111111000000011111000000000000000000000000000000000000000000000000000000000000000
00000000000000000000000000000000000000000000001111110000000011111000000000000000000000000000000000000000000000000000000000000000
00000000000000000000000000000000000000000000001111110000000011111000000000000000000000000000000000000000000000000000000000000000
00000000000000000000000000000000000000000000001111110000000011111100000000000000000000000000000000000000000000000000000000000000
00000000000000000000000000000000000000000000001111110000000011111100000000000000000000000000000000000000000000000000000000000000
00000000000000000000000000000000000000000000001111110000000011111000000000000000000000000000000000000000000000000000000000000000
00000000000000000000000000000000000000000000001111110000000111111000000000000000000000000000000000000000000000000000000000000000
00000000000000000000000000000000000000000000001111111110001111111000000000000000000000000000000000000000000000000000000000000000
00000000000000000000000000000000000000000000000111111111111111110000000000000000000000000000000000000000000000000000000000000000
00000000000000000000000000000000000000000000000011111111111111110000000000000000000000000000000000000000000000000000000000000000
00000000000000000000000000000000000000000000000001111111111111100000000000000000000000000000000000000000000000000000000000000000
00000000000000000000000000000000000000000000000000011111111111000000000000000000000000000000000000000000000000000000000000000000
00000000000000000000000000000000000000000000000000001111111100000000000000000000000000000000000000000000000000000000000000000000
00000000000000000000000000000000000000000000000000000000000000000000000000000000000000000000000000000000000000000000000000000000
00000000000000000000000000000000000000000000000000000000000000000000000000000000000000000000000000000000000000000000000000000000
00000000000000000000000000000000000000000000000000000000000000000000000000000000000000000000000000000000000000000000000000000000
00000000000000000000000000000000000000000000000000000000000000000000000000000000000000000000000000000000000000000000000000000000
00000000000000000000000000000000000000000000000000000000000000000000000000000000000000000000000000000000000000000000000000000000
00000000000000000000000000000000000000000000000000000000000000000000000000000000000000000000000000000000000000000000000000000000
00000000000000000000000000000000000000000000000000000000000000000000000000000000000000000000000000000000000000000000000000000000
00000000000000000000000000000000000000000000000000000000000000000000000000000000000000000000000000000000000000000000000000000000
00000000000000000000000000000000000000000000000000000000000000000000000000000000000000000000000000000000000000000000000000000000
00000000000000000000000000000000000000000000000000000000000000000000000000000000000000000000000000000000000000000000000000000000
00000000000000000000000000000000000000000000000000000000000000000000000000000000000000000000000000000000000000000000000000000000
00000000000000000000000000000000000000000000000000000000000000000000000000000000000000000000000000000000000000000000000000000000
00000000000000000000000000000000000000000000000000000000000000000000000000000000000000000000000000000000000000000000000000000000
00000000000000000000000000000000000000000000000000000000000000000000000000000000000000000000000000000000000000000000000000000000
00000000000000000000000000000000000000000000000000000000000000000000000000000000000000000000000000000000000000000000000000000000
00000000000000000000000000000000000000000000000000000000000000000000000000000000000000000000000000000000000000000000000000000000
00000000000000000000000000000000000000000000000000000000000000000000000000000000000000000000000000000000000000000000000000000000
00000000000000000000000000000000000000000000000000000000000000000000000000000000000000000000000000000000000000000000000000000000
00000000000000000000000000000000000000000000000000000000000000000000000000000000000000000000000000000000000000000000000000000000
00000000000000000000000000000000000000000000000000000000000000000000000000000000000000000000000000000000000000000000000000000000
00000000000000000000000000000000000000000000000000000000000000000000000000000000000000000000000000000000000000000000000000000000
00000000000000000000000000000000000000000000000000000000000000000000000000000000000000000000000000000000000000000000000000000000
00000000000000000000000000000000000000000000000000000000000000000000000000000000000000000000000000000000000000000000000000000000
00000000000000000000000000000000000000000000000000000000000000000000000000000000000000000000000000000000000000000000000000000000
00000000000000000000000000000000000000000000000000000000000000000000000000000000000000000000000000000000000000000000000000000000
00000000000000000000000000000000000000000000000000000000000000000000000000000000000000000000000000000000000000000000000000000000
00000000000000000000000000000000000000000000000000000000000000000000000000000000000000000000000000000000000000000000000000000000
00000000000000000000000000000000000000000000000000000000000000000000000000000000000000000000000000000000000000000000000000000000
00000000000000000000000000000000000000000000000000000000000000000000000000000000000000000000000000000000000000000000000000000000
00000000000000000000000000000000000000000000000000000000000000000000000000000000000000000000000000000000000000000000000000000000
00000000000000000000000000000000000000000000000000000000000000000000000000000000000000000000000000000000000000000000000000000000
00000000000000000000000000000000000000000000000000000000000000000000000000000000000000000000000000000000000000000000000000000000
00000000000000000000000000000000000000000000000000000000000000000000000000000000000000000000000000000000000000000000000000000000
00000000000000000000000000000000000000000000000000000000000000000000000000000000000000000000000000000000000000000000000000000000
00000000000000000000000000000000000000000000000000000000000000000000000000000000000000000000000000000000000000000000000000000000
00000000000000000000000000000000000000000000000000000000000000000000000000000000000000000000000000000000000000000000000000000000
00000000000000000000000000000000000000000000000000000000000000000000000000000000000000000000000000000000000000000000000000000000
00000000000000000000000000000000000000000000000000000000000000000000000000000000000000000000000000000000000000000000000000000000
00000000000000000000000000000000000000000000000000000000000000000000000000000000000000000000000000000000000000000000000000000000
00000000000000000000000000000000000000000000000000000000000000000000000000000000000000000000000000000000000000000000000000000000
00000000000000000000000000000000000000000000000000000000000000000000000000000000000000000000000000000000000000000000000000000000
