P1
# NISTd8.2958
# 8
# Creado por el programa Pasa128aPBM.p
128 128
00000000000000000000000000000000000000000000000000000000000000000000000000000000000000000000000000000000000000000000000000000000
00000000000000000000000000000000000000000000000000000000000000000000000000000000000000000000000000000000000000000000000000000000
00000000000000000000000000000000000000000000000000000000000000000000000000000000000000000000000000000000000000000000000000000000
00000000000000000000000000000000000000000000000000000000000000000000000000000000000000000000000000000000000000000000000000000000
00000000000000000000000000000000000000000000000000000000000000000000000000000000000000000000000000000000000000000000000000000000
00000000000000000000000000000000000000000000000000000000000000000000000000000000000000000000000000000000000000000000000000000000
00000000000000000000000000000000000000000000000000000000000000000000000000000000000000000000000000000000000000000000000000000000
00000000000000000000000000000000000000000000000000000000000000000000000000000000000000000000000000000000000000000000000000000000
00000000000000000000000000000000000000000000000000000000000000000000000000000000000000000000000000000000000000000000000000000000
00000000000000000000000000000000000000000000000000000000000000000000000000000000000000000000000000000000000000000000000000000000
00000000000000000000000000000000000000000000000000000000000000000000000000000000000000000000000000000000000000000000000000000000
00000000000000000000000000000000000000000000000000000000000000000000000000000000000000000000000000000000000000000000000000000000
00000000000000000000000000000000000000000000000000000000000000000000000000000000000000000000000000000000000000000000000000000000
00000000000000000000000000000000000000000000000000000000000000000000000000000000000000000000000000000000000000000000000000000000
00000000000000000000000000000000000000000000000000000000000000000000000000000000000000000000000000000000000000000000000000000000
00000000000000000000000000000000000000000000000000000000000000000000000000000000000000000000000000000000000000000000000000000000
00000000000000000000000000000000000000000000000000000000000000000000000000000000000000000000000000000000000000000000000000000000
00000000000000000000000000000000000000000000000000000000000000000000000000000000000000000000000000000000000000000000000000000000
00000000000000000000000000000000000000000000000000000000000000000000000000000000000000000000000000000000000000000000000000000000
00000000000000000000000000000000000000000000000000000000000000000000000000000000000000000000000000000000000000000000000000000000
00000000000000000000000000000000000000000000000000000000000000000000000000000000000000000000000000000000000000000000000000000000
00000000000000000000000000000000000000000000000000000000000000000000000000000000000000000000000000000000000000000000000000000000
00000000000000000000000000000000000000000000000000000000000000000000000000000000000000000000000000000000000000000000000000000000
00000000000000000000000000000000000000000000000000000000000000000000000000000000000000000000000000000000000000000000000000000000
00000000000000000000000000000000000000000000000000000000000000000000000000000000000000000000000000000000000000000000000000000000
00000000000000000000000000000000000000000000000000000000000000000000000000000000000000000000000000000000000000000000000000000000
00000000000000000000000000000000000000000000000000000000000000000000000000000000000000000000000000000000000000000000000000000000
00000000000000000000000000000000000000000000000000000000000000000000000000000000000000000000000000000000000000000000000000000000
00000000000000000000000000000000000000000000000000000000000000000000000000000000000000000000000000000000000000000000000000000000
00000000000000000000000000000000000000000000000000000000000000000000000000000000000000000000000000000000000000000000000000000000
00000000000000000000000000000000000000000000000000000000000000000000000000000000000000000000000000000000000000000000000000000000
00000000000000000000000000000000000000000000000000000000000000000000000000000000000000000000000000000000000000000000000000000000
00000000000000000000000000000000000000000000000000000000000000000000000000000000000000000000000000000000000000000000000000000000
00000000000000000000000000000000000000000000000000000000000000000000000000000000000000000000000000000000000000000000000000000000
00000000000000000000000000000000000000000000000000000000000000000000000000000000000000000000000000000000000000000000000000000000
00000000000000000000000000000000000000000000000000000000000000000000000000000000000000000000000000000000000000000000000000000000
00000000000000000000000000000000000000000000000000000000000000000000000000000000000000000000000000000000000000000000000000000000
00000000000000000000000000000000000000000000000000000000000000000000000000000000000000000000000000000000000000000000000000000000
00000000000000000000000000000000000000000000000000000000000000000000001110111000000000000000000000000000000000000000000000000000
00000000000000000000000000000000000000000000000000000000000000000111111111111111110000000000000000000000000000000000000000000000
00000000000000000000000000000000000000000000000000000000000000011111111111111111110000000000000000000000000000000000000000000000
00000000000000000000000000000000000000000000000000000000000000111111111111111111111111000000000000000000000000000000000000000000
00000000000000000000000000000000000000000000000000000000000011111111111111111111111110000000000000000000000000000000000000000000
00000000000000000000000000000000000000000000000000000000000011111111111111111111111111000000000000000000000000000000000000000000
00000000000000000000000000000000000000000000000000000000000111111111111111111111111111000000000000000000000000000000000000000000
00000000000000000000000000000000000000000000000000000000000111111111111100000111111111000000000000000000000000000000000000000000
00000000000000000000000000000000000000000000000000000000001111111111000000000111111111000000000000000000000000000000000000000000
00000000000000000000000000000000000000000000000000000000111111111110000000000111111111000000000000000000000000000000000000000000
00000000000000000000000000000000000000000000000000000001111111111000000000000011111111000000000000000000000000000000000000000000
00000000000000000000000000000000000000000000000000001111111111100000000000000111111110000000000000000000000000000000000000000000
00000000000000000000000000000000000000000000000000000111111111100000000000000111111110000000000000000000000000000000000000000000
00000000000000000000000000000000000000000000000000001111111110000000000000111111110000000000000000000000000000000000000000000000
00000000000000000000000000000000000000000000000000000111111110000000000000111111111000000000000000000000000000000000000000000000
00000000000000000000000000000000000000000000000000000111111110000000000011111111111000000000000000000000000000000000000000000000
00000000000000000000000000000000000000000000000000000111111110000000000111111111111000000000000000000000000000000000000000000000
00000000000000000000000000000000000000000000000000000011111110000000111111111111110000000000000000000000000000000000000000000000
00000000000000000000000000000000000000000000000000000011111111000000111111111111000000000000000000000000000000000000000000000000
00000000000000000000000000000000000000000000000000000011111111000111111111111100000000000000000000000000000000000000000000000000
00000000000000000000000000000000000000000000000000000011111110011111111111110000000000000000000000000000000000000000000000000000
00000000000000000000000000000000000000000000000000000001111111111111111111000000000000000000000000000000000000000000000000000000
00000000000000000000000000000000000000000000000000000001111111111111111100000000000000000000000000000000000000000000000000000000
00000000000000000000000000000000000000000000000000000000111111111111111000000000000000000000000000000000000000000000000000000000
00000000000000000000000000000000000000000000000000000001111111111111000000000000000000000000000000000000000000000000000000000000
00000000000000000000000000000000000000000000000000000000111111111111000000000000000000000000000000000000000000000000000000000000
00000000000000000000000000000000000000000000000000000001111111111111000000000000000000000000000000000000000000000000000000000000
00000000000000000000000000000000000000000000000000000001111111111111000000000000000000000000000000000000000000000000000000000000
00000000000000000000000000000000000000000000000000000111111111111111000000000000000000000000000000000000000000000000000000000000
00000000000000000000000000000000000000000000000000000111111111111111100000000000000000000000000000000000000000000000000000000000
00000000000000000000000000000000000000000000000000111111111111111111000000000000000000000000000000000000000000000000000000000000
00000000000000000000000000000000000000000000000001111111110001111111000000000000000000000000000000000000000000000000000000000000
00000000000000000000000000000000000000000000000111111111000001111110000000000000000000000000000000000000000000000000000000000000
00000000000000000000000000000000000000000000000011111111000000111111000000000000000000000000000000000000000000000000000000000000
00000000000000000000000000000000000000000000001111111100000001111110000000000000000000000000000000000000000000000000000000000000
00000000000000000000000000000000000000000000001111111100000000111111000000000000000000000000000000000000000000000000000000000000
00000000000000000000000000000000000000000001111111110000000001111111000000000000000000000000000000000000000000000000000000000000
00000000000000000000000000000000000000000000111111100000000000111111000000000000000000000000000000000000000000000000000000000000
00000000000000000000000000000000000000000000111111000000000001111111000000000000000000000000000000000000000000000000000000000000
00000000000000000000000000000000000000000000111111000000000111111111000000000000000000000000000000000000000000000000000000000000
00000000000000000000000000000000000000000001111111000000011111111111000000000000000000000000000000000000000000000000000000000000
00000000000000000000000000000000000000000000111111000001111111111110000000000000000000000000000000000000000000000000000000000000
00000000000000000000000000000000000000000000111111111111111111111100000000000000000000000000000000000000000000000000000000000000
00000000000000000000000000000000000000000001111111111111111111000000000000000000000000000000000000000000000000000000000000000000
00000000000000000000000000000000000000000000111111111111111111000000000000000000000000000000000000000000000000000000000000000000
00000000000000000000000000000000000000000000111111111111111110000000000000000000000000000000000000000000000000000000000000000000
00000000000000000000000000000000000000000000011111111111111110000000000000000000000000000000000000000000000000000000000000000000
00000000000000000000000000000000000000000000001111111111111000000000000000000000000000000000000000000000000000000000000000000000
00000000000000000000000000000000000000000000000111111111000000000000000000000000000000000000000000000000000000000000000000000000
00000000000000000000000000000000000000000000000000000000000000000000000000000000000000000000000000000000000000000000000000000000
00000000000000000000000000000000000000000000000000000000000000000000000000000000000000000000000000000000000000000000000000000000
00000000000000000000000000000000000000000000000000000000000000000000000000000000000000000000000000000000000000000000000000000000
00000000000000000000000000000000000000000000000000000000000000000000000000000000000000000000000000000000000000000000000000000000
00000000000000000000000000000000000000000000000000000000000000000000000000000000000000000000000000000000000000000000000000000000
00000000000000000000000000000000000000000000000000000000000000000000000000000000000000000000000000000000000000000000000000000000
00000000000000000000000000000000000000000000000000000000000000000000000000000000000000000000000000000000000000000000000000000000
00000000000000000000000000000000000000000000000000000000000000000000000000000000000000000000000000000000000000000000000000000000
00000000000000000000000000000000000000000000000000000000000000000000000000000000000000000000000000000000000000000000000000000000
00000000000000000000000000000000000000000000000000000000000000000000000000000000000000000000000000000000000000000000000000000000
00000000000000000000000000000000000000000000000000000000000000000000000000000000000000000000000000000000000000000000000000000000
00000000000000000000000000000000000000000000000000000000000000000000000000000000000000000000000000000000000000000000000000000000
00000000000000000000000000000000000000000000000000000000000000000000000000000000000000000000000000000000000000000000000000000000
00000000000000000000000000000000000000000000000000000000000000000000000000000000000000000000000000000000000000000000000000000000
00000000000000000000000000000000000000000000000000000000000000000000000000000000000000000000000000000000000000000000000000000000
00000000000000000000000000000000000000000000000000000000000000000000000000000000000000000000000000000000000000000000000000000000
00000000000000000000000000000000000000000000000000000000000000000000000000000000000000000000000000000000000000000000000000000000
00000000000000000000000000000000000000000000000000000000000000000000000000000000000000000000000000000000000000000000000000000000
00000000000000000000000000000000000000000000000000000000000000000000000000000000000000000000000000000000000000000000000000000000
00000000000000000000000000000000000000000000000000000000000000000000000000000000000000000000000000000000000000000000000000000000
00000000000000000000000000000000000000000000000000000000000000000000000000000000000000000000000000000000000000000000000000000000
00000000000000000000000000000000000000000000000000000000000000000000000000000000000000000000000000000000000000000000000000000000
00000000000000000000000000000000000000000000000000000000000000000000000000000000000000000000000000000000000000000000000000000000
00000000000000000000000000000000000000000000000000000000000000000000000000000000000000000000000000000000000000000000000000000000
00000000000000000000000000000000000000000000000000000000000000000000000000000000000000000000000000000000000000000000000000000000
00000000000000000000000000000000000000000000000000000000000000000000000000000000000000000000000000000000000000000000000000000000
00000000000000000000000000000000000000000000000000000000000000000000000000000000000000000000000000000000000000000000000000000000
00000000000000000000000000000000000000000000000000000000000000000000000000000000000000000000000000000000000000000000000000000000
00000000000000000000000000000000000000000000000000000000000000000000000000000000000000000000000000000000000000000000000000000000
00000000000000000000000000000000000000000000000000000000000000000000000000000000000000000000000000000000000000000000000000000000
00000000000000000000000000000000000000000000000000000000000000000000000000000000000000000000000000000000000000000000000000000000
00000000000000000000000000000000000000000000000000000000000000000000000000000000000000000000000000000000000000000000000000000000
00000000000000000000000000000000000000000000000000000000000000000000000000000000000000000000000000000000000000000000000000000000
00000000000000000000000000000000000000000000000000000000000000000000000000000000000000000000000000000000000000000000000000000000
00000000000000000000000000000000000000000000000000000000000000000000000000000000000000000000000000000000000000000000000000000000
00000000000000000000000000000000000000000000000000000000000000000000000000000000000000000000000000000000000000000000000000000000
00000000000000000000000000000000000000000000000000000000000000000000000000000000000000000000000000000000000000000000000000000000
00000000000000000000000000000000000000000000000000000000000000000000000000000000000000000000000000000000000000000000000000000000
00000000000000000000000000000000000000000000000000000000000000000000000000000000000000000000000000000000000000000000000000000000
00000000000000000000000000000000000000000000000000000000000000000000000000000000000000000000000000000000000000000000000000000000
00000000000000000000000000000000000000000000000000000000000000000000000000000000000000000000000000000000000000000000000000000000
