P1
# NISTd8.1031
# 8
# Creado por el programa Pasa128aPBM.p
128 128
00000000000000000000000000000000000000000000000000000000000000000000000000000000000000000000000000000000000000000000000000000000
00000000000000000000000000000000000000000000000000000000000000000000000000000000000000000000000000000000000000000000000000000000
00000000000000000000000000000000000000000000000000000000000000000000000000000000000000000000000000000000000000000000000000000000
00000000000000000000000000000000000000000000000000000000000000000000000000000000000000000000000000000000000000000000000000000000
00000000000000000000000000000000000000000000000000000000000000000000000000000000000000000000000000000000000000000000000000000000
00000000000000000000000000000000000000000000000000000000000000000000000000000000000000000000000000000000000000000000000000000000
00000000000000000000000000000000000000000000000000000000000000000000000000000000000000000000000000000000000000000000000000000000
00000000000000000000000000000000000000000000000000000000000000000000000000000000000000000000000000000000000000000000000000000000
00000000000000000000000000000000000000000000000000000000000000000000000000000000000000000000000000000000000000000000000000000000
00000000000000000000000000000000000000000000000000000000000000000000000000000000000000000000000000000000000000000000000000000000
00000000000000000000000000000000000000000000000000000000000000000000000000000000000000000000000000000000000000000000000000000000
00000000000000000000000000000000000000000000000000000000000000000000000000000000000000000000000000000000000000000000000000000000
00000000000000000000000000000000000000000000000000000000000000000000000000000000000000000000000000000000000000000000000000000000
00000000000000000000000000000000000000000000000000000000000000000000000000000000000000000000000000000000000000000000000000000000
00000000000000000000000000000000000000000000000000000000000000000000000000000000000000000000000000000000000000000000000000000000
00000000000000000000000000000000000000000000000000000000000000000000000000000000000000000000000000000000000000000000000000000000
00000000000000000000000000000000000000000000000000000000000000000000000000000000000000000000000000000000000000000000000000000000
00000000000000000000000000000000000000000000000000000000000000000000000000000000000000000000000000000000000000000000000000000000
00000000000000000000000000000000000000000000000000000000000000000000000000000000000000000000000000000000000000000000000000000000
00000000000000000000000000000000000000000000000000000000000000000000000000000000000000000000000000000000000000000000000000000000
00000000000000000000000000000000000000000000000000000000000000000000000000000000000000000000000000000000000000000000000000000000
00000000000000000000000000000000000000000000000000000000000000000000000000000000000000000000000000000000000000000000000000000000
00000000000000000000000000000000000000000000000000000000000000000000000000000000000000000000000000000000000000000000000000000000
00000000000000000000000000000000000000000000000000000000000000000000000000000000000000000000000000000000000000000000000000000000
00000000000000000000000000000000000000000000000000000000000000000000000000000000000000000000000000000000000000000000000000000000
00000000000000000000000000000000000000000000000000000000000000000000000000000000000000000000000000000000000000000000000000000000
00000000000000000000000000000000000000000000000000000000000000000000000000000000000000000000000000000000000000000000000000000000
00000000000000000000000000000000000000000000000000000000000000000000000000000000000000000000000000000000000000000000000000000000
00000000000000000000000000000000000000000000000000000000000000000000000000000000000000000000000000000000000000000000000000000000
00000000000000000000000000000000000000000000000000000000000000000000000000000000000000000000000000000000000000000000000000000000
00000000000000000000000000000000000000000000000000000000000000000000000000000000000000000000000000000000000000000000000000000000
00000000000000000000000000000000000000000000000000000000000000000000000000000000000000000000000000000000000000000000000000000000
00000000000000000000000000000000000000000000000000000000000000000000000000000000000000000000000000000000000000000000000000000000
00000000000000000000000000000000000000000000000000000000000000000000000000000000000000000000000000000000000000000000000000000000
00000000000000000000000000000000000000000000000000000000000000000000000000000000000000000000000000000000000000000000000000000000
00000000000000000000000000000000000000000000000000000000000000000000000000000000000000000000000000000000000000000000000000000000
00000000000000000000000000000000000000000000000000000000000000000000000000000000000000000000000000000000000000000000000000000000
00000000000000000000000000000000000000000000000000000000000000000000000000000000000000000000000000000000000000000000000000000000
00000000000000000000000000000000000000000000000000000000000000000000000000000000000000000000000000000000000000000000000000000000
00000000000000000000000000000000000000000000000000000000000000000000000000000000000000000000000000000000000000000000000000000000
00000000000000000000000000000000000000000000000000000000000000000000000000000000000000000000000000000000000000000000000000000000
00000000000000000000000000000000000000000000000000000000000111111111110000000000000000000000000000000000000000000000000000000000
00000000000000000000000000000000000000000000000000000000101111111111111000000000000000000000000000000000000000000000000000000000
00000000000000000000000000000000000000000000000000000011111111111111111100000000000000000000000000000000000000000000000000000000
00000000000000000000000000000000000000000000000000000111111111111111111100000000000000000000000000000000000000000000000000000000
00000000000000000000000000000000000000000000000000001111111111111111111111000000000000000000000000000000000000000000000000000000
00000000000000000000000000000000000000000000000000111111111111111111111111100000000000000000000000000000000000000000000000000000
00000000000000000000000000000000000000000000000001111111111100000000111111100000000000000000000000000000000000000000000000000000
00000000000000000000000000000000000000000000000001111111000000000000111110000000000000000000000000000000000000000000000000000000
00000000000000000000000000000000000000000000000011111110000000000000111111000000000000000000000000000000000000000000000000000000
00000000000000000000000000000000000000000000000111111110000000000001111111000000000000000000000000000000000000000000000000000000
00000000000000000000000000000000000000000000000111111100000000000011111111000000000000000000000000000000000000000000000000000000
00000000000000000000000000000000000000000000000111111000000000000011111111000000000000000000000000000000000000000000000000000000
00000000000000000000000000000000000000000000000111111000000000000111111111000000000000000000000000000000000000000000000000000000
00000000000000000000000000000000000000000000000111111000000000000111111110000000000000000000000000000000000000000000000000000000
00000000000000000000000000000000000000000000000111111100000000011111111100000000000000000000000000000000000000000000000000000000
00000000000000000000000000000000000000000000000111111110000000111111111000000000000000000000000000000000000000000000000000000000
00000000000000000000000000000000000000000000000111111111000101111111110000000000000000000000000000000000000000000000000000000000
00000000000000000000000000000000000000000000000011111111111111111111100000000000000000000000000000000000000000000000000000000000
00000000000000000000000000000000000000000000000001111111111111111111000000000000000000000000000000000000000000000000000000000000
00000000000000000000000000000000000000000000000000111111111111111110000000000000000000000000000000000000000000000000000000000000
00000000000000000000000000000000000000000000000000001111111111111100000000000000000000000000000000000000000000000000000000000000
00000000000000000000000000000000000000000000000000001111111111111000000000000000000000000000000000000000000000000000000000000000
00000000000000000000000000000000000000000000000000001111111111111000000000000000000000000000000000000000000000000000000000000000
00000000000000000000000000000000000000000000000000001111111111111000000000000000000000000000000000000000000000000000000000000000
00000000000000000000000000000000000000000000000000111111111111111000000000000000000000000000000000000000000000000000000000000000
00000000000000000000000000000000000000000000000000111111111111111100000000000000000000000000000000000000000000000000000000000000
00000000000000000000000000000000000000000000000000111111111111111110000000000000000000000000000000000000000000000000000000000000
00000000000000000000000000000000000000000000000001111111110001111110000000000000000000000000000000000000000000000000000000000000
00000000000000000000000000000000000000000000000011111111000000111111000000000000000000000000000000000000000000000000000000000000
00000000000000000000000000000000000000000000000011111111000000011111100000000000000000000000000000000000000000000000000000000000
00000000000000000000000000000000000000000000000111111110000000001111100000000000000000000000000000000000000000000000000000000000
00000000000000000000000000000000000000000000000111111100000000000111110000000000000000000000000000000000000000000000000000000000
00000000000000000000000000000000000000000000000111111000000000000111110000000000000000000000000000000000000000000000000000000000
00000000000000000000000000000000000000000000000111111000000000000011111000000000000000000000000000000000000000000000000000000000
00000000000000000000000000000000000000000000000111111000000000000011111000000000000000000000000000000000000000000000000000000000
00000000000000000000000000000000000000000000000111111100000000001111111000000000000000000000000000000000000000000000000000000000
00000000000000000000000000000000000000000000000011111110000000111111110000000000000000000000000000000000000000000000000000000000
00000000000000000000000000000000000000000000000011111111100111111111000000000000000000000000000000000000000000000000000000000000
00000000000000000000000000000000000000000000000001111111111111111111000000000000000000000000000000000000000000000000000000000000
00000000000000000000000000000000000000000000000001111111111111111110000000000000000000000000000000000000000000000000000000000000
00000000000000000000000000000000000000000000000000111111111111111000000000000000000000000000000000000000000000000000000000000000
00000000000000000000000000000000000000000000000000001111111111010000000000000000000000000000000000000000000000000000000000000000
00000000000000000000000000000000000000000000000000000111111100000000000000000000000000000000000000000000000000000000000000000000
00000000000000000000000000000000000000000000000000000000000000000000000000000000000000000000000000000000000000000000000000000000
00000000000000000000000000000000000000000000000000000000000000000000000000000000000000000000000000000000000000000000000000000000
00000000000000000000000000000000000000000000000000000000000000000000000000000000000000000000000000000000000000000000000000000000
00000000000000000000000000000000000000000000000000000000000000000000000000000000000000000000000000000000000000000000000000000000
00000000000000000000000000000000000000000000000000000000000000000000000000000000000000000000000000000000000000000000000000000000
00000000000000000000000000000000000000000000000000000000000000000000000000000000000000000000000000000000000000000000000000000000
00000000000000000000000000000000000000000000000000000000000000000000000000000000000000000000000000000000000000000000000000000000
00000000000000000000000000000000000000000000000000000000000000000000000000000000000000000000000000000000000000000000000000000000
00000000000000000000000000000000000000000000000000000000000000000000000000000000000000000000000000000000000000000000000000000000
00000000000000000000000000000000000000000000000000000000000000000000000000000000000000000000000000000000000000000000000000000000
00000000000000000000000000000000000000000000000000000000000000000000000000000000000000000000000000000000000000000000000000000000
00000000000000000000000000000000000000000000000000000000000000000000000000000000000000000000000000000000000000000000000000000000
00000000000000000000000000000000000000000000000000000000000000000000000000000000000000000000000000000000000000000000000000000000
00000000000000000000000000000000000000000000000000000000000000000000000000000000000000000000000000000000000000000000000000000000
00000000000000000000000000000000000000000000000000000000000000000000000000000000000000000000000000000000000000000000000000000000
00000000000000000000000000000000000000000000000000000000000000000000000000000000000000000000000000000000000000000000000000000000
00000000000000000000000000000000000000000000000000000000000000000000000000000000000000000000000000000000000000000000000000000000
00000000000000000000000000000000000000000000000000000000000000000000000000000000000000000000000000000000000000000000000000000000
00000000000000000000000000000000000000000000000000000000000000000000000000000000000000000000000000000000000000000000000000000000
00000000000000000000000000000000000000000000000000000000000000000000000000000000000000000000000000000000000000000000000000000000
00000000000000000000000000000000000000000000000000000000000000000000000000000000000000000000000000000000000000000000000000000000
00000000000000000000000000000000000000000000000000000000000000000000000000000000000000000000000000000000000000000000000000000000
00000000000000000000000000000000000000000000000000000000000000000000000000000000000000000000000000000000000000000000000000000000
00000000000000000000000000000000000000000000000000000000000000000000000000000000000000000000000000000000000000000000000000000000
00000000000000000000000000000000000000000000000000000000000000000000000000000000000000000000000000000000000000000000000000000000
00000000000000000000000000000000000000000000000000000000000000000000000000000000000000000000000000000000000000000000000000000000
00000000000000000000000000000000000000000000000000000000000000000000000000000000000000000000000000000000000000000000000000000000
00000000000000000000000000000000000000000000000000000000000000000000000000000000000000000000000000000000000000000000000000000000
00000000000000000000000000000000000000000000000000000000000000000000000000000000000000000000000000000000000000000000000000000000
00000000000000000000000000000000000000000000000000000000000000000000000000000000000000000000000000000000000000000000000000000000
00000000000000000000000000000000000000000000000000000000000000000000000000000000000000000000000000000000000000000000000000000000
00000000000000000000000000000000000000000000000000000000000000000000000000000000000000000000000000000000000000000000000000000000
00000000000000000000000000000000000000000000000000000000000000000000000000000000000000000000000000000000000000000000000000000000
00000000000000000000000000000000000000000000000000000000000000000000000000000000000000000000000000000000000000000000000000000000
00000000000000000000000000000000000000000000000000000000000000000000000000000000000000000000000000000000000000000000000000000000
00000000000000000000000000000000000000000000000000000000000000000000000000000000000000000000000000000000000000000000000000000000
00000000000000000000000000000000000000000000000000000000000000000000000000000000000000000000000000000000000000000000000000000000
00000000000000000000000000000000000000000000000000000000000000000000000000000000000000000000000000000000000000000000000000000000
00000000000000000000000000000000000000000000000000000000000000000000000000000000000000000000000000000000000000000000000000000000
00000000000000000000000000000000000000000000000000000000000000000000000000000000000000000000000000000000000000000000000000000000
00000000000000000000000000000000000000000000000000000000000000000000000000000000000000000000000000000000000000000000000000000000
00000000000000000000000000000000000000000000000000000000000000000000000000000000000000000000000000000000000000000000000000000000
00000000000000000000000000000000000000000000000000000000000000000000000000000000000000000000000000000000000000000000000000000000
00000000000000000000000000000000000000000000000000000000000000000000000000000000000000000000000000000000000000000000000000000000
