P1
# NISTd6.486
# 6
# Creado por el programa Pasa128aPBM.p
128 128
00000000000000000000000000000000000000000000000000000000000000000000000000000000000000000000000000000000000000000000000000000000
00000000000000000000000000000000000000000000000000000000000000000000000000000000000000000000000000000000000000000000000000000000
00000000000000000000000000000000000000000000000000000000000000000000000000000000000000000000000000000000000000000000000000000000
00000000000000000000000000000000000000000000000000000000000000000000000000000000000000000000000000000000000000000000000000000000
00000000000000000000000000000000000000000000000000000000000000000000000000000000000000000000000000000000000000000000000000000000
00000000000000000000000000000000000000000000000000000000000000000000000000000000000000000000000000000000000000000000000000000000
00000000000000000000000000000000000000000000000000000000000000000000000000000000000000000000000000000000000000000000000000000000
00000000000000000000000000000000000000000000000000000000000000000000000000000000000000000000000000000000000000000000000000000000
00000000000000000000000000000000000000000000000000000000000000000000000000000000000000000000000000000000000000000000000000000000
00000000000000000000000000000000000000000000000000000000000000000000000000000000000000000000000000000000000000000000000000000000
00000000000000000000000000000000000000000000000000000000000000000000000000000000000000000000000000000000000000000000000000000000
00000000000000000000000000000000000000000000000000000000000000000000000000000000000000000000000000000000000000000000000000000000
00000000000000000000000000000000000000000000000000000000000000000000000000000000000000000000000000000000000000000000000000000000
00000000000000000000000000000000000000000000000000000000000000000000000000000000000000000000000000000000000000000000000000000000
00000000000000000000000000000000000000000000000000000000000000000000000000000000000000000000000000000000000000000000000000000000
00000000000000000000000000000000000000000000000000000000000000000000000000000000000000000000000000000000000000000000000000000000
00000000000000000000000000000000000000000000000000000000000000000000000000000000000000000000000000000000000000000000000000000000
00000000000000000000000000000000000000000000000000000000000000000000000000000000000000000000000000000000000000000000000000000000
00000000000000000000000000000000000000000000000000000000000000000000000000000000000000000000000000000000000000000000000000000000
00000000000000000000000000000000000000000000000000000000000000000000000000000000000000000000000000000000000000000000000000000000
00000000000000000000000000000000000000000000000000000000000000000000000000000000000000000000000000000000000000000000000000000000
00000000000000000000000000000000000000000000000000000000000000000000000000000000000000000000000000000000000000000000000000000000
00000000000000000000000000000000000000000000000000000000000000000000000000000000000000000000000000000000000000000000000000000000
00000000000000000000000000000000000000000000000000000000000000000000000000000000000000000000000000000000000000000000000000000000
00000000000000000000000000000000000000000000000000000000000000000000000000000000000000000000000000000000000000000000000000000000
00000000000000000000000000000000000000000000000000000000000000000000000000000000110000000000000000000000000000000000000000000000
00000000000000000000000000000000000000000000000000000000000000000000000000000001111000000000000000000000000000000000000000000000
00000000000000000000000000000000000000000000000000000000000000000000000000000011111000000000000000000000000000000000000000000000
00000000000000000000000000000000000000000000000000000000000000000000000000000111111100000000000000000000000000000000000000000000
00000000000000000000000000000000000000000000000000000000000000000000000000000111111100000000000000000000000000000000000000000000
00000000000000000000000000000000000000000000000000000000000000000000000000001111111100000000000000000000000000000000000000000000
00000000000000000000000000000000000000000000000000000000000000000000000000011111111110000000000000000000000000000000000000000000
00000000000000000000000000000000000000000000000000000000000000000000000000111111111110000000000000000000000000000000000000000000
00000000000000000000000000000000000000000000000000000000000000000000000000111111111100000000000000000000000000000000000000000000
00000000000000000000000000000000000000000000000000000000000000000000000001111111111000000000000000000000000000000000000000000000
00000000000000000000000000000000000000000000000000000000000000000000000011111111111000000000000000000000000000000000000000000000
00000000000000000000000000000000000000000000000000000000000000000000000111111111110000000000000000000000000000000000000000000000
00000000000000000000000000000000000000000000000000000000000000000000000111111111110000000000000000000000000000000000000000000000
00000000000000000000000000000000000000000000000000000000000000000000001111111111100000000000000000000000000000000000000000000000
00000000000000000000000000000000000000000000000000000000000000000000011111111111000000000000000000000000000000000000000000000000
00000000000000000000000000000000000000000000000000000000000000000000111111111111000000000000000000000000000000000000000000000000
00000000000000000000000000000000000000000000000000000000000000000000111111111110000000000000000000000000000000000000000000000000
00000000000000000000000000000000000000000000000000000000000000000001111111111100000000000000000000000000000000000000000000000000
00000000000000000000000000000000000000000000000000000000000000000011111111111000000000000000000000000000000000000000000000000000
00000000000000000000000000000000000000000000000000000000000000000111111111111000000000000000000000000000000000000000000000000000
00000000000000000000000000000000000000000000000000000000000000000111111111110000000000000000000000000000000000000000000000000000
00000000000000000000000000000000000000000000000000000000000000001111111111100000000000000000000000000000000000000000000000000000
00000000000000000000000000000000000000000000000000000000000000011111111111000000000000000000000000000000000000000000000000000000
00000000000000000000000000000000000000000000000000000000000000011111111111000000000000000000000000000000000000000000000000000000
00000000000000000000000000000000000000000000000000000000000000111111111110000000000000000000000000000000000000000000000000000000
00000000000000000000000000000000000000000000000000000000000001111111111100000000000000000000000000000000000000000000000000000000
00000000000000000000000000000000000000000000000000000000000011111111111000000000000000000000000000000000000000000000000000000000
00000000000000000000000000000000000000000000000000000000000111111111110000000000000000000000000000000000000000000000000000000000
00000000000000000000000000000000000000000000000000000000000111111111100000000000000000000000000000000000000000000000000000000000
00000000000000000000000000000000000000000000000000000000001111111111100000000000000000000000000000000000000000000000000000000000
00000000000000000000000000000000000000000000000000000000111111111111000000000000000000000000000000000000000000000000000000000000
00000000000000000000000000000000000000000000000000000000111111111111000000000000000000000000000000000000000000000000000000000000
00000000000000000000000000000000000000000000000000000001111111111110000000000000000000000000000000000000000000000000000000000000
00000000000000000000000000000000000000000000000000000001111111111000000000000000000000000000000000000000000000000000000000000000
00000000000000000000000000000000000000000000000000000111111111111000000000000000000000000000000000000000000000000000000000000000
00000000000000000000000000000000000000000000000000000111111111111000000000000000000000000000000000000000000000000000000000000000
00000000000000000000000000000000000000000000000000001111111111110000000000000000000000000000000000000000000000000000000000000000
00000000000000000000000000000000000000000000000000111111111111100000000000000000000000000000000000000000000000000000000000000000
00000000000000000000000000000000000000000000000000111111111111000000000000000000000000000000000000000000000000000000000000000000
00000000000000000000000000000000000000000000000000111111111110000000000000000000000000000000000000000000000000000000000000000000
00000000000000000000000000000000000000000000000001111111111100000000000000000111110000000000000000000000000000000000000000000000
00000000000000000000000000000000000000000000000011111111111000000000000000111111111000000000000000000000000000000000000000000000
00000000000000000000000000000000000000000000000111111111111000000000000011111111111100000000000000000000000000000000000000000000
00000000000000000000000000000000000000000000001111111111110000000000001111111111111100000000000000000000000000000000000000000000
00000000000000000000000000000000000000000000001111111111100000000000111111111111111110000000000000000000000000000000000000000000
00000000000000000000000000000000000000000000011111111111000000000001111111111111111111000000000000000000000000000000000000000000
00000000000000000000000000000000000000000000111111111111000000000111111111111111111111000000000000000000000000000000000000000000
00000000000000000000000000000000000000000000111111111100000000001111111111111111111111000000000000000000000000000000000000000000
00000000000000000000000000000000000000000000111111111000000000011111111111111111111111000000000000000000000000000000000000000000
00000000000000000000000000000000000000000000111111111000000000111111111111111111111111000000000000000000000000000000000000000000
00000000000000000000000000000000000000000001111111111000000001111111111111110001111111000000000000000000000000000000000000000000
00000000000000000000000000000000000000000011111111110000000011111111111111000111111111000000000000000000000000000000000000000000
00000000000000000000000000000000000000000111111111100000000111111111111000000111111111000000000000000000000000000000000000000000
00000000000000000000000000000000000000000111111111000000000111111111110000001111111111000000000000000000000000000000000000000000
00000000000000000000000000000000000000000111111111000000011111111111000000011111111111000000000000000000000000000000000000000000
00000000000000000000000000000000000000001111111111000000111111111110000000111111111111000000000000000000000000000000000000000000
00000000000000000000000000000000000000001111111110000000111111111100000001111111111110000000000000000000000000000000000000000000
00000000000000000000000000000000000000011111111110000001111111111000000111111111111000000000000000000000000000000000000000000000
00000000000000000000000000000000000000111111111100000011111111111000001111111111110000000000000000000000000000000000000000000000
00000000000000000000000000000000000000111111111000000111111111110000111111111111000000000000000000000000000000000000000000000000
00000000000000000000000000000000000000111111111000000111111111100001111111111111000000000000000000000000000000000000000000000000
00000000000000000000000000000000000000111111111000001111111111000111111111111110000000000000000000000000000000000000000000000000
00000000000000000000000000000000000000111111110000001111111111011111111111111000000000000000000000000000000000000000000000000000
00000000000000000000000000000000000000111111110000011111111111111111111111110000000000000000000000000000000000000000000000000000
00000000000000000000000000000000000001111111100000111111111111111111111111000000000000000000000000000000000000000000000000000000
00000000000000000000000000000000000001111111100000111111111111111111111111000000000000000000000000000000000000000000000000000000
00000000000000000000000000000000000001111111000001111111111111111111111100000000000000000000000000000000000000000000000000000000
00000000000000000000000000000000000001111111000001111111111111111111111000000000000000000000000000000000000000000000000000000000
00000000000000000000000000000000000001111111000111111111111111111111110000000000000000000000000000000000000000000000000000000000
00000000000000000000000000000000000001111111000111111111111111111111000000000000000000000000000000000000000000000000000000000000
00000000000000000000000000000000000001111111111111111111111111111000000000000000000000000000000000000000000000000000000000000000
00000000000000000000000000000000000001111111111111111111111111110000000000000000000000000000000000000000000000000000000000000000
00000000000000000000000000000000000001111111111111111111111111000000000000000000000000000000000000000000000000000000000000000000
00000000000000000000000000000000000001111111111111111111111100000000000000000000000000000000000000000000000000000000000000000000
00000000000000000000000000000000000001111111111111111111110000000000000000000000000000000000000000000000000000000000000000000000
00000000000000000000000000000000000000000000000000000000000000000000000000000000000000000000000000000000000000000000000000000000
00000000000000000000000000000000000000000000000000000000000000000000000000000000000000000000000000000000000000000000000000000000
00000000000000000000000000000000000000000000000000000000000000000000000000000000000000000000000000000000000000000000000000000000
00000000000000000000000000000000000000000000000000000000000000000000000000000000000000000000000000000000000000000000000000000000
00000000000000000000000000000000000000000000000000000000000000000000000000000000000000000000000000000000000000000000000000000000
00000000000000000000000000000000000000000000000000000000000000000000000000000000000000000000000000000000000000000000000000000000
00000000000000000000000000000000000000000000000000000000000000000000000000000000000000000000000000000000000000000000000000000000
00000000000000000000000000000000000000000000000000000000000000000000000000000000000000000000000000000000000000000000000000000000
00000000000000000000000000000000000000000000000000000000000000000000000000000000000000000000000000000000000000000000000000000000
00000000000000000000000000000000000000000000000000000000000000000000000000000000000000000000000000000000000000000000000000000000
00000000000000000000000000000000000000000000000000000000000000000000000000000000000000000000000000000000000000000000000000000000
00000000000000000000000000000000000000000000000000000000000000000000000000000000000000000000000000000000000000000000000000000000
00000000000000000000000000000000000000000000000000000000000000000000000000000000000000000000000000000000000000000000000000000000
00000000000000000000000000000000000000000000000000000000000000000000000000000000000000000000000000000000000000000000000000000000
00000000000000000000000000000000000000000000000000000000000000000000000000000000000000000000000000000000000000000000000000000000
00000000000000000000000000000000000000000000000000000000000000000000000000000000000000000000000000000000000000000000000000000000
00000000000000000000000000000000000000000000000000000000000000000000000000000000000000000000000000000000000000000000000000000000
00000000000000000000000000000000000000000000000000000000000000000000000000000000000000000000000000000000000000000000000000000000
00000000000000000000000000000000000000000000000000000000000000000000000000000000000000000000000000000000000000000000000000000000
00000000000000000000000000000000000000000000000000000000000000000000000000000000000000000000000000000000000000000000000000000000
00000000000000000000000000000000000000000000000000000000000000000000000000000000000000000000000000000000000000000000000000000000
00000000000000000000000000000000000000000000000000000000000000000000000000000000000000000000000000000000000000000000000000000000
00000000000000000000000000000000000000000000000000000000000000000000000000000000000000000000000000000000000000000000000000000000
00000000000000000000000000000000000000000000000000000000000000000000000000000000000000000000000000000000000000000000000000000000
00000000000000000000000000000000000000000000000000000000000000000000000000000000000000000000000000000000000000000000000000000000
00000000000000000000000000000000000000000000000000000000000000000000000000000000000000000000000000000000000000000000000000000000
00000000000000000000000000000000000000000000000000000000000000000000000000000000000000000000000000000000000000000000000000000000
00000000000000000000000000000000000000000000000000000000000000000000000000000000000000000000000000000000000000000000000000000000
