P1
# NISTd6.1643
# 6
# Creado por el programa Pasa128aPBM.p
128 128
00000000000000000000000000000000000000000000000000000000000000000000000000000000000000000000000000000000000000000000000000000000
00000000000000000000000000000000000000000000000000000000000000000000000000000000000000000000000000000000000000000000000000000000
00000000000000000000000000000000000000000000000000000000000000000000000000000000000000000000000000000000000000000000000000000000
00000000000000000000000000000000000000000000000000000000000000000000000000000000000000000000000000000000000000000000000000000000
00000000000000000000000000000000000000000000000000000000000000000000000000000000000000000000000000000000000000000000000000000000
00000000000000000000000000000000000000000000000000000000000000000000000000000000000000000000000000000000000000000000000000000000
00000000000000000000000000000000000000000000000000000000000000000000000000000000000000000000000000000000000000000000000000000000
00000000000000000000000000000000000000000000000000000000000000000000000000000000000000000000000000000000000000000000000000000000
00000000000000000000000000000000000000000000000000000000000000000000000000000000000000000000000000000000000000000000000000000000
00000000000000000000000000000000000000000000000000000000000000000000000000000000000000000000000000000000000000000000000000000000
00000000000000000000000000000000000000000000000000000000000000000000000000000000000000000000000000000000000000000000000000000000
00000000000000000000000000000000000000000000000000000000000000000000000000000000000000000000000000000000000000000000000000000000
00000000000000000000000000000000000000000000000000000000000000000000000000000000000000000000000000000000000000000000000000000000
00000000000000000000000000000000000000000000000000000000000000000000000000000000000000000000000000000000000000000000000000000000
00000000000000000000000000000000000000000000000000000000000000000000000000000000000000000000000000000000000000000000000000000000
00000000000000000000000000000000000000000000000000000000000000000000000000000000000000000000000000000000000000000000000000000000
00000000000000000000000000000000000000000000000000000000000000000000000000000000000000000000000000000000000000000000000000000000
00000000000000000000000000000000000000000000000000000000000000000000000000000000000000000000000000000000000000000000000000000000
00000000000000000000000000000000000000000000000000000000000000000000000000000000000000000000000000000000000000000000000000000000
00000000000000000000000000000000000000000000000000000000000000000000000000000000000000000000000000000000000000000000000000000000
00000000000000000000000000000000000000000000000000000000000000000000000000000000000000000000000000000000000000000000000000000000
00000000000000000000000000000000000000000000000000000000000000000000000000000000000000000000000000000000000000000000000000000000
00000000000000000000000000000000000000000000000000000000000000000000000000000000000000000000000000000000000000000000000000000000
00000000000000000000000000000000000000000000000000000000000000000000000000000000000000000000000000000000000000000000000000000000
00000000000000000000000000000000000000000000000000000000000000000000000000000000000000000000000000000000000000000000000000000000
00000000000000000000000000000000000000000000000000000000000000000000000000000000000000000000000000000000000000000000000000000000
00000000000000000000000000000000000000000000000000000000000000000000000000000000000000000000000000000000000000000000000000000000
00000000000000000000000000000000000000000000000000000000000000000000000000000000000000000000000000000000000000000000000000000000
00000000000000000000000000000000000000000000000000000000000000000000000000000000000000000000000000000000000000000000000000000000
00000000000000000000000000000000000000000000000000000000000000000000000000000000000000000000000000000000000000000000000000000000
00000000000000000000000000000000000000000000000000000000000000000000000000000000000000000000000000000000000000000000000000000000
00000000000000000000000000000000000000000000000000000000000000000000000000000000000000000000000000000000000000000000000000000000
00000000000000000000000000000000000000000000000000000000000000000000000000000000000000000000000000000000000000000000000000000000
00000000000000000000000000000000000000000000000000000000000000000001111000000000000000000000000000000000000000000000000000000000
00000000000000000000000000000000000000000000000000000000000000000011111110000000000000000000000000000000000000000000000000000000
00000000000000000000000000000000000000000000000000000000000000000111111111000000000000000000000000000000000000000000000000000000
00000000000000000000000000000000000000000000000000000000000000000011111111000000000000000000000000000000000000000000000000000000
00000000000000000000000000000000000000000000000000000000000000000011111111000000000000000000000000000000000000000000000000000000
00000000000000000000000000000000000000000000000000000000000000000001111111000000000000000000000000000000000000000000000000000000
00000000000000000000000000000000000000000000000000000000000000000011111110000000000000000000000000000000000000000000000000000000
00000000000000000000000000000000000000000000000000000000000000000111111110000000000000000000000000000000000000000000000000000000
00000000000000000000000000000000000000000000000000000000000000000111111100000000000000000000000000000000000000000000000000000000
00000000000000000000000000000000000000000000000000000000000000000111111000000000000000000000000000000000000000000000000000000000
00000000000000000000000000000000000000000000000000000000000000001111111000000000000000000000000000000000000000000000000000000000
00000000000000000000000000000000000000000000000000000000000000001111111000000000000000000000000000000000000000000000000000000000
00000000000000000000000000000000000000000000000000000000000000011111110000000000000000000000000000000000000000000000000000000000
00000000000000000000000000000000000000000000000000000000000000111111100000000000000000000000000000000000000000000000000000000000
00000000000000000000000000000000000000000000000000000000000000111111100000000000000000000000000000000000000000000000000000000000
00000000000000000000000000000000000000000000000000000000000000111111000000000000000000000000000000000000000000000000000000000000
00000000000000000000000000000000000000000000000000000000000000111111000000000000000000000000000000000000000000000000000000000000
00000000000000000000000000000000000000000000000000000000000001111110000000000000000000000000000000000000000000000000000000000000
00000000000000000000000000000000000000000000000000000000000001111110000000000000000000000000000000000000000000000000000000000000
00000000000000000000000000000000000000000000000000000000000011111100000000000000000000000000000000000000000000000000000000000000
00000000000000000000000000000000000000000000000000000000000111111000000000000000000000000000000000000000000000000000000000000000
00000000000000000000000000000000000000000000000000000000000111111000000000000000000000000000000000000000000000000000000000000000
00000000000000000000000000000000000000000000000000000000000111111000000000000000000000000000000000000000000000000000000000000000
00000000000000000000000000000000000000000000000000000000001111110000000000000000000000000000000000000000000000000000000000000000
00000000000000000000000000000000000000000000000000000000001111110000000000000000000000000000000000000000000000000000000000000000
00000000000000000000000000000000000000000000000000000000001111100000000000000000000000000000000000000000000000000000000000000000
00000000000000000000000000000000000000000000000000000000011111100000000000000000000000000000000000000000000000000000000000000000
00000000000000000000000000000000000000000000000000000000111111000000000000000000000000000000000000000000000000000000000000000000
00000000000000000000000000000000000000000000000000000000111111000000000000000000000000000000000000000000000000000000000000000000
00000000000000000000000000000000000000000000000000000000111111000000000000000000000000000000000000000000000000000000000000000000
00000000000000000000000000000000000000000000000000000001111111000000000000000000000000000000000000000000000000000000000000000000
00000000000000000000000000000000000000000000000000000001111110000000000000000000000000000000000000000000000000000000000000000000
00000000000000000000000000000000000000000000000000000011111110000000000000000000000000000000000000000000000000000000000000000000
00000000000000000000000000000000000000000000000000000011111100000000000000000000000000000000000000000000000000000000000000000000
00000000000000000000000000000000000000000000000000000111111100000001111110000000000000000000000000000000000000000000000000000000
00000000000000000000000000000000000000000000000000000111111000000111111111000000000000000000000000000000000000000000000000000000
00000000000000000000000000000000000000000000000000000111111000001111111111100000000000000000000000000000000000000000000000000000
00000000000000000000000000000000000000000000000000000111111000111111111111110000000000000000000000000000000000000000000000000000
00000000000000000000000000000000000000000000000000001111111000111111111111111000000000000000000000000000000000000000000000000000
00000000000000000000000000000000000000000000000000001111111001111111111111111000000000000000000000000000000000000000000000000000
00000000000000000000000000000000000000000000000000001111110001111111111111111000000000000000000000000000000000000000000000000000
00000000000000000000000000000000000000000000000000011111100111111111001111111000000000000000000000000000000000000000000000000000
00000000000000000000000000000000000000000000000000011111000111111100001111111000000000000000000000000000000000000000000000000000
00000000000000000000000000000000000000000000000000011111001111111000001111111000000000000000000000000000000000000000000000000000
00000000000000000000000000000000000000000000000000111111011111111000001111111000000000000000000000000000000000000000000000000000
00000000000000000000000000000000000000000000000000111110111111100000001111111000000000000000000000000000000000000000000000000000
00000000000000000000000000000000000000000000000000111110111111000000011111110000000000000000000000000000000000000000000000000000
00000000000000000000000000000000000000000000000000111111111110000000111111100000000000000000000000000000000000000000000000000000
00000000000000000000000000000000000000000000000000111111111100000000111111000000000000000000000000000000000000000000000000000000
00000000000000000000000000000000000000000000000000111111111100000001111111000000000000000000000000000000000000000000000000000000
00000000000000000000000000000000000000000000000000111111111000000011111111000000000000000000000000000000000000000000000000000000
00000000000000000000000000000000000000000000000000111111111000000111111110000000000000000000000000000000000000000000000000000000
00000000000000000000000000000000000000000000000000111111111000011111111110000000000000000000000000000000000000000000000000000000
00000000000000000000000000000000000000000000000001111111111000111111111100000000000000000000000000000000000000000000000000000000
00000000000000000000000000000000000000000000000001111111111011111111111000000000000000000000000000000000000000000000000000000000
00000000000000000000000000000000000000000000000001111111111111111111111000000000000000000000000000000000000000000000000000000000
00000000000000000000000000000000000000000000000000111111111111111111100000000000000000000000000000000000000000000000000000000000
00000000000000000000000000000000000000000000000000111111111111111111000000000000000000000000000000000000000000000000000000000000
00000000000000000000000000000000000000000000000000111111111111111000000000000000000000000000000000000000000000000000000000000000
00000000000000000000000000000000000000000000000000001111111110000000000000000000000000000000000000000000000000000000000000000000
00000000000000000000000000000000000000000000000000000000000000000000000000000000000000000000000000000000000000000000000000000000
00000000000000000000000000000000000000000000000000000000000000000000000000000000000000000000000000000000000000000000000000000000
00000000000000000000000000000000000000000000000000000000000000000000000000000000000000000000000000000000000000000000000000000000
00000000000000000000000000000000000000000000000000000000000000000000000000000000000000000000000000000000000000000000000000000000
00000000000000000000000000000000000000000000000000000000000000000000000000000000000000000000000000000000000000000000000000000000
00000000000000000000000000000000000000000000000000000000000000000000000000000000000000000000000000000000000000000000000000000000
00000000000000000000000000000000000000000000000000000000000000000000000000000000000000000000000000000000000000000000000000000000
00000000000000000000000000000000000000000000000000000000000000000000000000000000000000000000000000000000000000000000000000000000
00000000000000000000000000000000000000000000000000000000000000000000000000000000000000000000000000000000000000000000000000000000
00000000000000000000000000000000000000000000000000000000000000000000000000000000000000000000000000000000000000000000000000000000
00000000000000000000000000000000000000000000000000000000000000000000000000000000000000000000000000000000000000000000000000000000
00000000000000000000000000000000000000000000000000000000000000000000000000000000000000000000000000000000000000000000000000000000
00000000000000000000000000000000000000000000000000000000000000000000000000000000000000000000000000000000000000000000000000000000
00000000000000000000000000000000000000000000000000000000000000000000000000000000000000000000000000000000000000000000000000000000
00000000000000000000000000000000000000000000000000000000000000000000000000000000000000000000000000000000000000000000000000000000
00000000000000000000000000000000000000000000000000000000000000000000000000000000000000000000000000000000000000000000000000000000
00000000000000000000000000000000000000000000000000000000000000000000000000000000000000000000000000000000000000000000000000000000
00000000000000000000000000000000000000000000000000000000000000000000000000000000000000000000000000000000000000000000000000000000
00000000000000000000000000000000000000000000000000000000000000000000000000000000000000000000000000000000000000000000000000000000
00000000000000000000000000000000000000000000000000000000000000000000000000000000000000000000000000000000000000000000000000000000
00000000000000000000000000000000000000000000000000000000000000000000000000000000000000000000000000000000000000000000000000000000
00000000000000000000000000000000000000000000000000000000000000000000000000000000000000000000000000000000000000000000000000000000
00000000000000000000000000000000000000000000000000000000000000000000000000000000000000000000000000000000000000000000000000000000
00000000000000000000000000000000000000000000000000000000000000000000000000000000000000000000000000000000000000000000000000000000
00000000000000000000000000000000000000000000000000000000000000000000000000000000000000000000000000000000000000000000000000000000
00000000000000000000000000000000000000000000000000000000000000000000000000000000000000000000000000000000000000000000000000000000
00000000000000000000000000000000000000000000000000000000000000000000000000000000000000000000000000000000000000000000000000000000
00000000000000000000000000000000000000000000000000000000000000000000000000000000000000000000000000000000000000000000000000000000
00000000000000000000000000000000000000000000000000000000000000000000000000000000000000000000000000000000000000000000000000000000
00000000000000000000000000000000000000000000000000000000000000000000000000000000000000000000000000000000000000000000000000000000
00000000000000000000000000000000000000000000000000000000000000000000000000000000000000000000000000000000000000000000000000000000
00000000000000000000000000000000000000000000000000000000000000000000000000000000000000000000000000000000000000000000000000000000
00000000000000000000000000000000000000000000000000000000000000000000000000000000000000000000000000000000000000000000000000000000
00000000000000000000000000000000000000000000000000000000000000000000000000000000000000000000000000000000000000000000000000000000
00000000000000000000000000000000000000000000000000000000000000000000000000000000000000000000000000000000000000000000000000000000
