P1
# NISTd6.1261
# 6
# Creado por el programa Pasa128aPBM.p
128 128
00000000000000000000000000000000000000000000000000000000000000000000000000000000000000000000000000000000000000000000000000000000
00000000000000000000000000000000000000000000000000000000000000000000000000000000000000000000000000000000000000000000000000000000
00000000000000000000000000000000000000000000000000000000000000000000000000000000000000000000000000000000000000000000000000000000
00000000000000000000000000000000000000000000000000000000000000000000000000000000000000000000000000000000000000000000000000000000
00000000000000000000000000000000000000000000000000000000000000000000000000000000000000000000000000000000000000000000000000000000
00000000000000000000000000000000000000000000000000000000000000000000000000000000000000000000000000000000000000000000000000000000
00000000000000000000000000000000000000000000000000000000000000000000000000000000000000000000000000000000000000000000000000000000
00000000000000000000000000000000000000000000000000000000000000000000000000000000000000000000000000000000000000000000000000000000
00000000000000000000000000000000000000000000000000000000000000000000000000000000000000000000000000000000000000000000000000000000
00000000000000000000000000000000000000000000000000000000000000000000000000000000000000000000000000000000000000000000000000000000
00000000000000000000000000000000000000000000000000000000000000000000000000000000000000000000000000000000000000000000000000000000
00000000000000000000000000000000000000000000000000000000000000000000000000000000000000000000000000000000000000000000000000000000
00000000000000000000000000000000000000000000000000000000000000000000000000000000000000000000000000000000000000000000000000000000
00000000000000000000000000000000000000000000000000000000000000000000000000000000000000000000000000000000000000000000000000000000
00000000000000000000000000000000000000000000000000000000000000000000000000000000000000000000000000000000000000000000000000000000
00000000000000000000000000000000000000000000000000000000000000000000000000000000000000000000000000000000000000000000000000000000
00000000000000000000000000000000000000000000000000000000000000000000000000000000000000000000000000000000000000000000000000000000
00000000000000000000000000000000000000000000000000000000000000000000000000000000000000000000000000000000000000000000000000000000
00000000000000000000000000000000000000000000000000000000000000000000000000000000000000000000000000000000000000000000000000000000
00000000000000000000000000000000000000000000000000000000000000000000000000000000000000000000000000000000000000000000000000000000
00000000000000000000000000000000000000000000000000000000000000000000000000000000000000000000000000000000000000000000000000000000
00000000000000000000000000000000000000000000000000000000000000000000000000000000000000000000000000000000000000000000000000000000
00000000000000000000000000000000000000000000000000000000000000000000000000000000000000000000000000000000000000000000000000000000
00000000000000000000000000000000000000000000000000000000000000000000000000000000000000000000000000000000000000000000000000000000
00000000000000000000000000000000000000000000000000000000000000000000000000000000000000000000000000000000000000000000000000000000
00000000000000000000000000000000000000000000000000000000000000000000000000000000000000000000000000000000000000000000000000000000
00000000000000000000000000000000000000000000000000000000000000000000000000000000000000000000000000000000000000000000000000000000
00000000000000000000000000000000000000000000000000000000000000000000000000000000000000000000000000000000000000000000000000000000
00000000000000000000000000000000000000000000000000000000000000000000000000000000000000000000000000000000000000000000000000000000
00000000000000000000000000000000000000000000000000000000000000000000000000000000000000000000000000000000000000000000000000000000
00000000000000000000000000000000000000000000000000000000000000000000000000000000000000000000000000000000000000000000000000000000
00000000000000000000000000000000000000000000000000000000000000000000000000000000000000000000000000000000000000000000000000000000
00000000000000000000000000000000000000000000000000000000000000000000000000000000000000000000000000000000000000000000000000000000
00000000000000000000000000000000000000000000000000000000000000000000000000000000000000000000000000000000000000000000000000000000
00000000000000000000000000000000000000000000000000000000000000000000000000000000000000000000000000000000000000000000000000000000
00000000000000000000000000000000000000000000000000000000000000000000000000000000000000000000000000000000000000000000000000000000
00000000000000000000000000000000000000000000000000000000000000000000000000000000000000000000000000000000000000000000000000000000
00000000000000000000000000000000000000000000000000000000000000000000000000000000000000000000000000000000000000000000000000000000
00000000000000000000000000000000000000000000000000000000000000000000000000000000000000000000000000000000000000000000000000000000
00000000000000000000000000000000000000000000000000000000000000000000000000000000000000000000000000000000000000000000000000000000
00000000000000000000000000000000000000000000000000000000000000000000001110000000000000000000000000000000000000000000000000000000
00000000000000000000000000000000000000000000000000000000000000000000111111000000000000000000000000000000000000000000000000000000
00000000000000000000000000000000000000000000000000000000000000000001111111100000000000000000000000000000000000000000000000000000
00000000000000000000000000000000000000000000000000000000000000000011111111000000000000000000000000000000000000000000000000000000
00000000000000000000000000000000000000000000000000000000000000000111111110000000000000000000000000000000000000000000000000000000
00000000000000000000000000000000000000000000000000000000000000011111111100000000000000000000000000000000000000000000000000000000
00000000000000000000000000000000000000000000000000000000000000111111111000000000000000000000000000000000000000000000000000000000
00000000000000000000000000000000000000000000000000000000000001111111110000000000000000000000000000000000000000000000000000000000
00000000000000000000000000000000000000000000000000000000000011111111100000000000000000000000000000000000000000000000000000000000
00000000000000000000000000000000000000000000000000000000000011111111100000000000000000000000000000000000000000000000000000000000
00000000000000000000000000000000000000000000000000000000000111111111000000000000000000000000000000000000000000000000000000000000
00000000000000000000000000000000000000000000000000000000011111111110000000000000000000000000000000000000000000000000000000000000
00000000000000000000000000000000000000000000000000000000011111111100000000000000000000000000000000000000000000000000000000000000
00000000000000000000000000000000000000000000000000000000111111111100000000000000000000000000000000000000000000000000000000000000
00000000000000000000000000000000000000000000000000000001111111111000000000000000000000000000000000000000000000000000000000000000
00000000000000000000000000000000000000000000000000000011111111110000000000000000000000000000000000000000000000000000000000000000
00000000000000000000000000000000000000000000000000000011111111100000000000000000000000000000000000000000000000000000000000000000
00000000000000000000000000000000000000000000000000000111111111000000000000000000000000000000000000000000000000000000000000000000
00000000000000000000000000000000000000000000000000001111111110000000000000000000000000000000000000000000000000000000000000000000
00000000000000000000000000000000000000000000000000011111111100000000000000000000000000000000000000000000000000000000000000000000
00000000000000000000000000000000000000000000000000111111111100000000000000000000000000000000000000000000000000000000000000000000
00000000000000000000000000000000000000000000000001111111111000000000000000000000000000000000000000000000000000000000000000000000
00000000000000000000000000000000000000000000000011111111110000000000000000011100000000000000000000000000000000000000000000000000
00000000000000000000000000000000000000000000000011111111100000000000000000111111100000000000000000000000000000000000000000000000
00000000000000000000000000000000000000000000000111111111100000000000000011111111111000000000000000000000000000000000000000000000
00000000000000000000000000000000000000000000001111111110000000000000011111111111111000000000000000000000000000000000000000000000
00000000000000000000000000000000000000000000011111111100000000000011111111111111111100000000000000000000000000000000000000000000
00000000000000000000000000000000000000000000011111111100000000011111111111111111111000000000000000000000000000000000000000000000
00000000000000000000000000000000000000000000011111111000000000111111111111111111111000000000000000000000000000000000000000000000
00000000000000000000000000000000000000000000111111111000000011111111111111111111111000000000000000000000000000000000000000000000
00000000000000000000000000000000000000000001111111111000001111111111111110011111111000000000000000000000000000000000000000000000
00000000000000000000000000000000000000000001111111110000011111111111110000011111100000000000000000000000000000000000000000000000
00000000000000000000000000000000000000000001111111100000111111111110000000011111100000000000000000000000000000000000000000000000
00000000000000000000000000000000000000000011111111100001111111110000000001111111000000000000000000000000000000000000000000000000
00000000000000000000000000000000000000000011111111100011111111100000000011111111000000000000000000000000000000000000000000000000
00000000000000000000000000000000000000000011111111100111111110000000001111111100000000000000000000000000000000000000000000000000
00000000000000000000000000000000000000000011111111001111111100000000011111111100000000000000000000000000000000000000000000000000
00000000000000000000000000000000000000000011111111101111111100000000111111111000000000000000000000000000000000000000000000000000
00000000000000000000000000000000000000000011111111111111111100000111111111110000000000000000000000000000000000000000000000000000
00000000000000000000000000000000000000000011111111111111111111111111111111100000000000000000000000000000000000000000000000000000
00000000000000000000000000000000000000000001111111111111111111111111111111100000000000000000000000000000000000000000000000000000
00000000000000000000000000000000000000000000111111111111111111111111111100000000000000000000000000000000000000000000000000000000
00000000000000000000000000000000000000000000011111111111111111111111111000000000000000000000000000000000000000000000000000000000
00000000000000000000000000000000000000000000001111111111111111111111100000000000000000000000000000000000000000000000000000000000
00000000000000000000000000000000000000000000000011111111111111111110000000000000000000000000000000000000000000000000000000000000
00000000000000000000000000000000000000000000000000011111111111100000000000000000000000000000000000000000000000000000000000000000
00000000000000000000000000000000000000000000000000000000000000000000000000000000000000000000000000000000000000000000000000000000
00000000000000000000000000000000000000000000000000000000000000000000000000000000000000000000000000000000000000000000000000000000
00000000000000000000000000000000000000000000000000000000000000000000000000000000000000000000000000000000000000000000000000000000
00000000000000000000000000000000000000000000000000000000000000000000000000000000000000000000000000000000000000000000000000000000
00000000000000000000000000000000000000000000000000000000000000000000000000000000000000000000000000000000000000000000000000000000
00000000000000000000000000000000000000000000000000000000000000000000000000000000000000000000000000000000000000000000000000000000
00000000000000000000000000000000000000000000000000000000000000000000000000000000000000000000000000000000000000000000000000000000
00000000000000000000000000000000000000000000000000000000000000000000000000000000000000000000000000000000000000000000000000000000
00000000000000000000000000000000000000000000000000000000000000000000000000000000000000000000000000000000000000000000000000000000
00000000000000000000000000000000000000000000000000000000000000000000000000000000000000000000000000000000000000000000000000000000
00000000000000000000000000000000000000000000000000000000000000000000000000000000000000000000000000000000000000000000000000000000
00000000000000000000000000000000000000000000000000000000000000000000000000000000000000000000000000000000000000000000000000000000
00000000000000000000000000000000000000000000000000000000000000000000000000000000000000000000000000000000000000000000000000000000
00000000000000000000000000000000000000000000000000000000000000000000000000000000000000000000000000000000000000000000000000000000
00000000000000000000000000000000000000000000000000000000000000000000000000000000000000000000000000000000000000000000000000000000
00000000000000000000000000000000000000000000000000000000000000000000000000000000000000000000000000000000000000000000000000000000
00000000000000000000000000000000000000000000000000000000000000000000000000000000000000000000000000000000000000000000000000000000
00000000000000000000000000000000000000000000000000000000000000000000000000000000000000000000000000000000000000000000000000000000
00000000000000000000000000000000000000000000000000000000000000000000000000000000000000000000000000000000000000000000000000000000
00000000000000000000000000000000000000000000000000000000000000000000000000000000000000000000000000000000000000000000000000000000
00000000000000000000000000000000000000000000000000000000000000000000000000000000000000000000000000000000000000000000000000000000
00000000000000000000000000000000000000000000000000000000000000000000000000000000000000000000000000000000000000000000000000000000
00000000000000000000000000000000000000000000000000000000000000000000000000000000000000000000000000000000000000000000000000000000
00000000000000000000000000000000000000000000000000000000000000000000000000000000000000000000000000000000000000000000000000000000
00000000000000000000000000000000000000000000000000000000000000000000000000000000000000000000000000000000000000000000000000000000
00000000000000000000000000000000000000000000000000000000000000000000000000000000000000000000000000000000000000000000000000000000
00000000000000000000000000000000000000000000000000000000000000000000000000000000000000000000000000000000000000000000000000000000
00000000000000000000000000000000000000000000000000000000000000000000000000000000000000000000000000000000000000000000000000000000
00000000000000000000000000000000000000000000000000000000000000000000000000000000000000000000000000000000000000000000000000000000
00000000000000000000000000000000000000000000000000000000000000000000000000000000000000000000000000000000000000000000000000000000
00000000000000000000000000000000000000000000000000000000000000000000000000000000000000000000000000000000000000000000000000000000
00000000000000000000000000000000000000000000000000000000000000000000000000000000000000000000000000000000000000000000000000000000
00000000000000000000000000000000000000000000000000000000000000000000000000000000000000000000000000000000000000000000000000000000
00000000000000000000000000000000000000000000000000000000000000000000000000000000000000000000000000000000000000000000000000000000
00000000000000000000000000000000000000000000000000000000000000000000000000000000000000000000000000000000000000000000000000000000
00000000000000000000000000000000000000000000000000000000000000000000000000000000000000000000000000000000000000000000000000000000
00000000000000000000000000000000000000000000000000000000000000000000000000000000000000000000000000000000000000000000000000000000
00000000000000000000000000000000000000000000000000000000000000000000000000000000000000000000000000000000000000000000000000000000
00000000000000000000000000000000000000000000000000000000000000000000000000000000000000000000000000000000000000000000000000000000
00000000000000000000000000000000000000000000000000000000000000000000000000000000000000000000000000000000000000000000000000000000
00000000000000000000000000000000000000000000000000000000000000000000000000000000000000000000000000000000000000000000000000000000
00000000000000000000000000000000000000000000000000000000000000000000000000000000000000000000000000000000000000000000000000000000
