P1
# NISTd9.443
# 9
# Creado por el programa Pasa128aPBM.p
128 128
00000000000000000000000000000000000000000000000000000000000000000000000000000000000000000000000000000000000000000000000000000000
00000000000000000000000000000000000000000000000000000000000000000000000000000000000000000000000000000000000000000000000000000000
00000000000000000000000000000000000000000000000000000000000000000000000000000000000000000000000000000000000000000000000000000000
00000000000000000000000000000000000000000000000000000000000000000000000000000000000000000000000000000000000000000000000000000000
00000000000000000000000000000000000000000000000000000000000000000000000000000000000000000000000000000000000000000000000000000000
00000000000000000000000000000000000000000000000000000000000000000000000000000000000000000000000000000000000000000000000000000000
00000000000000000000000000000000000000000000000000000000000000000000000000000000000000000000000000000000000000000000000000000000
00000000000000000000000000000000000000000000000000000000000000000000000000000000000000000000000000000000000000000000000000000000
00000000000000000000000000000000000000000000000000000000000000000000000000000000000000000000000000000000000000000000000000000000
00000000000000000000000000000000000000000000000000000000000000000000000000000000000000000000000000000000000000000000000000000000
00000000000000000000000000000000000000000000000000000000000000000000000000000000000000000000000000000000000000000000000000000000
00000000000000000000000000000000000000000000000000000000000000000000000000000000000000000000000000000000000000000000000000000000
00000000000000000000000000000000000000000000000000000000000000000000000000000000000000000000000000000000000000000000000000000000
00000000000000000000000000000000000000000000000000000000000000000000000000000000000000000000000000000000000000000000000000000000
00000000000000000000000000000000000000000000000000000000000000000000000000000000000000000000000000000000000000000000000000000000
00000000000000000000000000000000000000000000000000000000000000000000000000000000000000000000000000000000000000000000000000000000
00000000000000000000000000000000000000000000000000000000000000000000000000000000000000000000000000000000000000000000000000000000
00000000000000000000000000000000000000000000000000000000000000000000000000000000000000000000000000000000000000000000000000000000
00000000000000000000000000000000000000000000000000000000000000000000000000000000000000000000000000000000000000000000000000000000
00000000000000000000000000000000000000000000000000000000000000000000000000000000000000000000000000000000000000000000000000000000
00000000000000000000000000000000000000000000000000000000000000000000000000000000000000000000000000000000000000000000000000000000
00000000000000000000000000000000000000000000000000000000000000000000000000000000000000000000000000000000000000000000000000000000
00000000000000000000000000000000000000000000000000000000000000000000000000000000000000000000000000000000000000000000000000000000
00000000000000000000000000000000000000000000000000000000000000000000000000000000000000000000000000000000000000000000000000000000
00000000000000000000000000000000000000000000000000000000000000000000000000000000000000000000000000000000000000000000000000000000
00000000000000000000000000000000000000000000000000000000000000000000000000000000000000000000000000000000000000000000000000000000
00000000000000000000000000000000000000000000000000000000000000000000000000000000000000000000000000000000000000000000000000000000
00000000000000000000000000000000000000000000000000000000000000000000000000000000000000000000000000000000000000000000000000000000
00000000000000000000000000000000000000000000000000000000000000000000000000000000000000000000000000000000000000000000000000000000
00000000000000000000000000000000000000000000000000000000000000000000000000000000000000000000000000000000000000000000000000000000
00000000000000000000000000000000000000000000000000000000000000000000000000000000000000000000000000000000000000000000000000000000
00000000000000000000000000000000000000000000000000000000000000000000000000000000011100000000000000000000000000000000000000000000
00000000000000000000000000000000000000000000000000000000000000000000000000000111111111111100000000000000000000000000000000000000
00000000000000000000000000000000000000000000000000000000000000000000000101111111111111111111000000000000000000000000000000000000
00000000000000000000000000000000000000000000000000000000000000000011111111111111111111111111000000000000000000000000000000000000
00000000000000000000000000000000000000000000000000000000000000000011111111111111111111111111100000000000000000000000000000000000
00000000000000000000000000000000000000000000000000000000000000001111111111111111111111111111110000000000000000000000000000000000
00000000000000000000000000000000000000000000000000000000000000111111111111111111111111111111111000000000000000000000000000000000
00000000000000000000000000000000000000000000000000000000000001111111111111111111111111111111111100000000000000000000000000000000
00000000000000000000000000000000000000000000000000000000011111111111111111111111111111111111111100000000000000000000000000000000
00000000000000000000000000000000000000000000000000000011111111111111111111111101111111111111111100000000000000000000000000000000
00000000000000000000000000000000000000000000000000000011111111111111111111110000000001111111111100000000000000000000000000000000
00000000000000000000000000000000000000000000000000001111111111111111111000000000000001111111111100000000000000000000000000000000
00000000000000000000000000000000000000000000000000001111111111111111100000000000000001111111111110000000000000000000000000000000
00000000000000000000000000000000000000000000000000111111111111111000000000000000000011111111111100000000000000000000000000000000
00000000000000000000000000000000000000000000000000111111111111000000000000000000000011111111111100000000000000000000000000000000
00000000000000000000000000000000000000000000000011111111111000000000000000000000000111111111111100000000000000000000000000000000
00000000000000000000000000000000000000000000000011111111110000000000000000000000001111111111111100000000000000000000000000000000
00000000000000000000000000000000000000000000000111111111100000000000000000000000011111111111111100000000000000000000000000000000
00000000000000000000000000000000000000000000001111111111000000000000000000000000111111111111111000000000000000000000000000000000
00000000000000000000000000000000000000000000001111111110000000000000000000000001111111111111111000000000000000000000000000000000
00000000000000000000000000000000000000000000011111111100000000000000000000001111111111111111100000000000000000000000000000000000
00000000000000000000000000000000000000000000111111111000000000000000000000011111111111111111000000000000000000000000000000000000
00000000000000000000000000000000000000000000111111110000000000000000000011111111111111111100000000000000000000000000000000000000
00000000000000000000000000000000000000000001111111100000000000000000000111111111111111111000000000000000000000000000000000000000
00000000000000000000000000000000000000000000111111110000000000000000001111111111111111111100000000000000000000000000000000000000
00000000000000000000000000000000000000000011111111000000000000000011111111111111111111110000000000000000000000000000000000000000
00000000000000000000000000000000000000000011111111000000000000000111111111111111111111100000000000000000000000000000000000000000
00000000000000000000000000000000000000000011111111000000000111111111111111111111111111100000000000000000000000000000000000000000
00000000000000000000000000000000000000000011111111101111111111111111111111111111111111000000000000000000000000000000000000000000
00000000000000000000000000000000000000000011111111111111111111111111111111111111111110000000000000000000000000000000000000000000
00000000000000000000000000000000000000000011111111111111111111111111111111111111111100000000000000000000000000000000000000000000
00000000000000000000000000000000000000000011111111111111111111111111100001111111111100000000000000000000000000000000000000000000
00000000000000000000000000000000000000000001111111111111111111111100000011111111111000000000000000000000000000000000000000000000
00000000000000000000000000000000000000000000111111111111111111111000000011111111111000000000000000000000000000000000000000000000
00000000000000000000000000000000000000000000111111111111111111000000000111111111111000000000000000000000000000000000000000000000
00000000000000000000000000000000000000000000011111111111111100000000000111111111100000000000000000000000000000000000000000000000
00000000000000000000000000000000000000000000000111111110000000000000001111111111100000000000000000000000000000000000000000000000
00000000000000000000000000000000000000000000000000000000000000000000011111111111100000000000000000000000000000000000000000000000
00000000000000000000000000000000000000000000000000000000000000000000011111111111000000000000000000000000000000000000000000000000
00000000000000000000000000000000000000000000000000000000000000000000011111111111000000000000000000000000000000000000000000000000
00000000000000000000000000000000000000000000000000000000000000000000111111111110000000000000000000000000000000000000000000000000
00000000000000000000000000000000000000000000000000000000000000000001111111111100000000000000000000000000000000000000000000000000
00000000000000000000000000000000000000000000000000000000000000000011111111111100000000000000000000000000000000000000000000000000
00000000000000000000000000000000000000000000000000000000000000000011111111111000000000000000000000000000000000000000000000000000
00000000000000000000000000000000000000000000000000000000000000000001111111111000000000000000000000000000000000000000000000000000
00000000000000000000000000000000000000000000000000000000000000000011111111100000000000000000000000000000000000000000000000000000
00000000000000000000000000000000000000000000000000000000000000000111111111100000000000000000000000000000000000000000000000000000
00000000000000000000000000000000000000000000000000000000000000001111111111000000000000000000000000000000000000000000000000000000
00000000000000000000000000000000000000000000000000000000000000011111111111000000000000000000000000000000000000000000000000000000
00000000000000000000000000000000000000000000000000000000000000011111111110000000000000000000000000000000000000000000000000000000
00000000000000000000000000000000000000000000000000000000000000111111111100000000000000000000000000000000000000000000000000000000
00000000000000000000000000000000000000000000000000000000000000011111111110000000000000000000000000000000000000000000000000000000
00000000000000000000000000000000000000000000000000000000000001111111111100000000000000000000000000000000000000000000000000000000
00000000000000000000000000000000000000000000000000000000000011111111111000000000000000000000000000000000000000000000000000000000
00000000000000000000000000000000000000000000000000000000000011111111111000000000000000000000000000000000000000000000000000000000
00000000000000000000000000000000000000000000000000000000000111111111110000000000000000000000000000000000000000000000000000000000
00000000000000000000000000000000000000000000000000000000000011111111110000000000000000000000000000000000000000000000000000000000
00000000000000000000000000000000000000000000000000000000001111111111100000000000000000000000000000000000000000000000000000000000
00000000000000000000000000000000000000000000000000000000011111111111100000000000000000000000000000000000000000000000000000000000
00000000000000000000000000000000000000000000000000000000011111111111000000000000000000000000000000000000000000000000000000000000
00000000000000000000000000000000000000000000000000000000011111111110000000000000000000000000000000000000000000000000000000000000
00000000000000000000000000000000000000000000000000000000011111111110000000000000000000000000000000000000000000000000000000000000
00000000000000000000000000000000000000000000000000000000011111111100000000000000000000000000000000000000000000000000000000000000
00000000000000000000000000000000000000000000000000000000000000000000000000000000000000000000000000000000000000000000000000000000
00000000000000000000000000000000000000000000000000000000000000000000000000000000000000000000000000000000000000000000000000000000
00000000000000000000000000000000000000000000000000000000000000000000000000000000000000000000000000000000000000000000000000000000
00000000000000000000000000000000000000000000000000000000000000000000000000000000000000000000000000000000000000000000000000000000
00000000000000000000000000000000000000000000000000000000000000000000000000000000000000000000000000000000000000000000000000000000
00000000000000000000000000000000000000000000000000000000000000000000000000000000000000000000000000000000000000000000000000000000
00000000000000000000000000000000000000000000000000000000000000000000000000000000000000000000000000000000000000000000000000000000
00000000000000000000000000000000000000000000000000000000000000000000000000000000000000000000000000000000000000000000000000000000
00000000000000000000000000000000000000000000000000000000000000000000000000000000000000000000000000000000000000000000000000000000
00000000000000000000000000000000000000000000000000000000000000000000000000000000000000000000000000000000000000000000000000000000
00000000000000000000000000000000000000000000000000000000000000000000000000000000000000000000000000000000000000000000000000000000
00000000000000000000000000000000000000000000000000000000000000000000000000000000000000000000000000000000000000000000000000000000
00000000000000000000000000000000000000000000000000000000000000000000000000000000000000000000000000000000000000000000000000000000
00000000000000000000000000000000000000000000000000000000000000000000000000000000000000000000000000000000000000000000000000000000
00000000000000000000000000000000000000000000000000000000000000000000000000000000000000000000000000000000000000000000000000000000
00000000000000000000000000000000000000000000000000000000000000000000000000000000000000000000000000000000000000000000000000000000
00000000000000000000000000000000000000000000000000000000000000000000000000000000000000000000000000000000000000000000000000000000
00000000000000000000000000000000000000000000000000000000000000000000000000000000000000000000000000000000000000000000000000000000
00000000000000000000000000000000000000000000000000000000000000000000000000000000000000000000000000000000000000000000000000000000
00000000000000000000000000000000000000000000000000000000000000000000000000000000000000000000000000000000000000000000000000000000
00000000000000000000000000000000000000000000000000000000000000000000000000000000000000000000000000000000000000000000000000000000
00000000000000000000000000000000000000000000000000000000000000000000000000000000000000000000000000000000000000000000000000000000
00000000000000000000000000000000000000000000000000000000000000000000000000000000000000000000000000000000000000000000000000000000
00000000000000000000000000000000000000000000000000000000000000000000000000000000000000000000000000000000000000000000000000000000
00000000000000000000000000000000000000000000000000000000000000000000000000000000000000000000000000000000000000000000000000000000
00000000000000000000000000000000000000000000000000000000000000000000000000000000000000000000000000000000000000000000000000000000
00000000000000000000000000000000000000000000000000000000000000000000000000000000000000000000000000000000000000000000000000000000
00000000000000000000000000000000000000000000000000000000000000000000000000000000000000000000000000000000000000000000000000000000
00000000000000000000000000000000000000000000000000000000000000000000000000000000000000000000000000000000000000000000000000000000
00000000000000000000000000000000000000000000000000000000000000000000000000000000000000000000000000000000000000000000000000000000
00000000000000000000000000000000000000000000000000000000000000000000000000000000000000000000000000000000000000000000000000000000
00000000000000000000000000000000000000000000000000000000000000000000000000000000000000000000000000000000000000000000000000000000
00000000000000000000000000000000000000000000000000000000000000000000000000000000000000000000000000000000000000000000000000000000
00000000000000000000000000000000000000000000000000000000000000000000000000000000000000000000000000000000000000000000000000000000
